M48
; DRILL file {KiCad 7.0.7} date Mon Sep 18 17:32:51 2023
; FORMAT={-:-/ absolute / metric / decimal}
; #@! TF.CreationDate,2023-09-18T17:32:51-06:00
; #@! TF.GenerationSoftware,Kicad,Pcbnew,7.0.7
; #@! TF.FileFunction,Plated,1,2,PTH
FMAT,2
METRIC
; #@! TA.AperFunction,Plated,PTH,ViaDrill
T1C0.500
; #@! TA.AperFunction,Plated,PTH,ComponentDrill
T2C1.000
; #@! TA.AperFunction,Plated,PTH,ComponentDrill
T3C1.110
; #@! TA.AperFunction,Plated,PTH,ComponentDrill
T4C1.400
%
G90
G05
T1
X125.25Y-111.425
T2
X108.96Y-77.75
X111.5Y-77.75
X131.2Y-81.13
X131.2Y-83.67
X131.2Y-86.21
X131.2Y-88.75
X131.2Y-91.29
X131.2Y-93.83
X131.2Y-96.37
X131.2Y-98.91
X131.2Y-101.45
X131.2Y-103.99
X131.2Y-106.53
X131.2Y-109.07
X131.2Y-111.61
X131.2Y-114.15
X131.2Y-116.69
X131.2Y-119.23
X131.2Y-121.77
X131.2Y-124.31
X131.2Y-126.85
X131.2Y-129.39
T3
X99.85Y-83.875
X99.85Y-86.415
X99.85Y-88.955
X99.85Y-91.495
X99.85Y-94.035
X99.85Y-96.575
X99.85Y-99.115
X99.85Y-101.655
X99.85Y-104.195
X99.85Y-106.735
X99.85Y-109.275
X99.85Y-111.815
X99.85Y-114.355
X99.85Y-116.895
X99.85Y-119.435
X99.85Y-121.975
X99.85Y-124.515
X99.85Y-127.055
X125.25Y-99.115
X125.25Y-101.655
T4
X107.25Y-91.5
X107.25Y-106.74
T0
M30
