%TF.GenerationSoftware,KiCad,Pcbnew,7.0.7*%
%TF.CreationDate,2023-09-18T17:32:58-06:00*%
%TF.ProjectId,hygienie_pcb,68796769-656e-4696-955f-7063622e6b69,00*%
%TF.SameCoordinates,Original*%
%TF.FileFunction,Legend,Top*%
%TF.FilePolarity,Positive*%
%FSLAX46Y46*%
G04 Gerber Fmt 4.6, Leading zero omitted, Abs format (unit mm)*
G04 Created by KiCad (PCBNEW 7.0.7) date 2023-09-18 17:32:58*
%MOMM*%
%LPD*%
G01*
G04 APERTURE LIST*
%ADD10C,0.150000*%
%ADD11C,0.120000*%
G04 APERTURE END LIST*
D10*
X98936779Y-75019819D02*
X98936779Y-74019819D01*
X98936779Y-74496009D02*
X99508207Y-74496009D01*
X99508207Y-75019819D02*
X99508207Y-74019819D01*
X99889160Y-74353152D02*
X100127255Y-75019819D01*
X100365350Y-74353152D02*
X100127255Y-75019819D01*
X100127255Y-75019819D02*
X100032017Y-75257914D01*
X100032017Y-75257914D02*
X99984398Y-75305533D01*
X99984398Y-75305533D02*
X99889160Y-75353152D01*
X101174874Y-74353152D02*
X101174874Y-75162676D01*
X101174874Y-75162676D02*
X101127255Y-75257914D01*
X101127255Y-75257914D02*
X101079636Y-75305533D01*
X101079636Y-75305533D02*
X100984398Y-75353152D01*
X100984398Y-75353152D02*
X100841541Y-75353152D01*
X100841541Y-75353152D02*
X100746303Y-75305533D01*
X101174874Y-74972200D02*
X101079636Y-75019819D01*
X101079636Y-75019819D02*
X100889160Y-75019819D01*
X100889160Y-75019819D02*
X100793922Y-74972200D01*
X100793922Y-74972200D02*
X100746303Y-74924580D01*
X100746303Y-74924580D02*
X100698684Y-74829342D01*
X100698684Y-74829342D02*
X100698684Y-74543628D01*
X100698684Y-74543628D02*
X100746303Y-74448390D01*
X100746303Y-74448390D02*
X100793922Y-74400771D01*
X100793922Y-74400771D02*
X100889160Y-74353152D01*
X100889160Y-74353152D02*
X101079636Y-74353152D01*
X101079636Y-74353152D02*
X101174874Y-74400771D01*
X101651065Y-75019819D02*
X101651065Y-74353152D01*
X101651065Y-74019819D02*
X101603446Y-74067438D01*
X101603446Y-74067438D02*
X101651065Y-74115057D01*
X101651065Y-74115057D02*
X101698684Y-74067438D01*
X101698684Y-74067438D02*
X101651065Y-74019819D01*
X101651065Y-74019819D02*
X101651065Y-74115057D01*
X102508207Y-74972200D02*
X102412969Y-75019819D01*
X102412969Y-75019819D02*
X102222493Y-75019819D01*
X102222493Y-75019819D02*
X102127255Y-74972200D01*
X102127255Y-74972200D02*
X102079636Y-74876961D01*
X102079636Y-74876961D02*
X102079636Y-74496009D01*
X102079636Y-74496009D02*
X102127255Y-74400771D01*
X102127255Y-74400771D02*
X102222493Y-74353152D01*
X102222493Y-74353152D02*
X102412969Y-74353152D01*
X102412969Y-74353152D02*
X102508207Y-74400771D01*
X102508207Y-74400771D02*
X102555826Y-74496009D01*
X102555826Y-74496009D02*
X102555826Y-74591247D01*
X102555826Y-74591247D02*
X102079636Y-74686485D01*
X102984398Y-74353152D02*
X102984398Y-75019819D01*
X102984398Y-74448390D02*
X103032017Y-74400771D01*
X103032017Y-74400771D02*
X103127255Y-74353152D01*
X103127255Y-74353152D02*
X103270112Y-74353152D01*
X103270112Y-74353152D02*
X103365350Y-74400771D01*
X103365350Y-74400771D02*
X103412969Y-74496009D01*
X103412969Y-74496009D02*
X103412969Y-75019819D01*
X103889160Y-75019819D02*
X103889160Y-74353152D01*
X103889160Y-74019819D02*
X103841541Y-74067438D01*
X103841541Y-74067438D02*
X103889160Y-74115057D01*
X103889160Y-74115057D02*
X103936779Y-74067438D01*
X103936779Y-74067438D02*
X103889160Y-74019819D01*
X103889160Y-74019819D02*
X103889160Y-74115057D01*
X104746302Y-74972200D02*
X104651064Y-75019819D01*
X104651064Y-75019819D02*
X104460588Y-75019819D01*
X104460588Y-75019819D02*
X104365350Y-74972200D01*
X104365350Y-74972200D02*
X104317731Y-74876961D01*
X104317731Y-74876961D02*
X104317731Y-74496009D01*
X104317731Y-74496009D02*
X104365350Y-74400771D01*
X104365350Y-74400771D02*
X104460588Y-74353152D01*
X104460588Y-74353152D02*
X104651064Y-74353152D01*
X104651064Y-74353152D02*
X104746302Y-74400771D01*
X104746302Y-74400771D02*
X104793921Y-74496009D01*
X104793921Y-74496009D02*
X104793921Y-74591247D01*
X104793921Y-74591247D02*
X104317731Y-74686485D01*
X106317731Y-74496009D02*
X106460588Y-74543628D01*
X106460588Y-74543628D02*
X106508207Y-74591247D01*
X106508207Y-74591247D02*
X106555826Y-74686485D01*
X106555826Y-74686485D02*
X106555826Y-74829342D01*
X106555826Y-74829342D02*
X106508207Y-74924580D01*
X106508207Y-74924580D02*
X106460588Y-74972200D01*
X106460588Y-74972200D02*
X106365350Y-75019819D01*
X106365350Y-75019819D02*
X105984398Y-75019819D01*
X105984398Y-75019819D02*
X105984398Y-74019819D01*
X105984398Y-74019819D02*
X106317731Y-74019819D01*
X106317731Y-74019819D02*
X106412969Y-74067438D01*
X106412969Y-74067438D02*
X106460588Y-74115057D01*
X106460588Y-74115057D02*
X106508207Y-74210295D01*
X106508207Y-74210295D02*
X106508207Y-74305533D01*
X106508207Y-74305533D02*
X106460588Y-74400771D01*
X106460588Y-74400771D02*
X106412969Y-74448390D01*
X106412969Y-74448390D02*
X106317731Y-74496009D01*
X106317731Y-74496009D02*
X105984398Y-74496009D01*
X107127255Y-75019819D02*
X107032017Y-74972200D01*
X107032017Y-74972200D02*
X106984398Y-74924580D01*
X106984398Y-74924580D02*
X106936779Y-74829342D01*
X106936779Y-74829342D02*
X106936779Y-74543628D01*
X106936779Y-74543628D02*
X106984398Y-74448390D01*
X106984398Y-74448390D02*
X107032017Y-74400771D01*
X107032017Y-74400771D02*
X107127255Y-74353152D01*
X107127255Y-74353152D02*
X107270112Y-74353152D01*
X107270112Y-74353152D02*
X107365350Y-74400771D01*
X107365350Y-74400771D02*
X107412969Y-74448390D01*
X107412969Y-74448390D02*
X107460588Y-74543628D01*
X107460588Y-74543628D02*
X107460588Y-74829342D01*
X107460588Y-74829342D02*
X107412969Y-74924580D01*
X107412969Y-74924580D02*
X107365350Y-74972200D01*
X107365350Y-74972200D02*
X107270112Y-75019819D01*
X107270112Y-75019819D02*
X107127255Y-75019819D01*
X108317731Y-75019819D02*
X108317731Y-74496009D01*
X108317731Y-74496009D02*
X108270112Y-74400771D01*
X108270112Y-74400771D02*
X108174874Y-74353152D01*
X108174874Y-74353152D02*
X107984398Y-74353152D01*
X107984398Y-74353152D02*
X107889160Y-74400771D01*
X108317731Y-74972200D02*
X108222493Y-75019819D01*
X108222493Y-75019819D02*
X107984398Y-75019819D01*
X107984398Y-75019819D02*
X107889160Y-74972200D01*
X107889160Y-74972200D02*
X107841541Y-74876961D01*
X107841541Y-74876961D02*
X107841541Y-74781723D01*
X107841541Y-74781723D02*
X107889160Y-74686485D01*
X107889160Y-74686485D02*
X107984398Y-74638866D01*
X107984398Y-74638866D02*
X108222493Y-74638866D01*
X108222493Y-74638866D02*
X108317731Y-74591247D01*
X108793922Y-75019819D02*
X108793922Y-74353152D01*
X108793922Y-74543628D02*
X108841541Y-74448390D01*
X108841541Y-74448390D02*
X108889160Y-74400771D01*
X108889160Y-74400771D02*
X108984398Y-74353152D01*
X108984398Y-74353152D02*
X109079636Y-74353152D01*
X109841541Y-75019819D02*
X109841541Y-74019819D01*
X109841541Y-74972200D02*
X109746303Y-75019819D01*
X109746303Y-75019819D02*
X109555827Y-75019819D01*
X109555827Y-75019819D02*
X109460589Y-74972200D01*
X109460589Y-74972200D02*
X109412970Y-74924580D01*
X109412970Y-74924580D02*
X109365351Y-74829342D01*
X109365351Y-74829342D02*
X109365351Y-74543628D01*
X109365351Y-74543628D02*
X109412970Y-74448390D01*
X109412970Y-74448390D02*
X109460589Y-74400771D01*
X109460589Y-74400771D02*
X109555827Y-74353152D01*
X109555827Y-74353152D02*
X109746303Y-74353152D01*
X109746303Y-74353152D02*
X109841541Y-74400771D01*
X123029819Y-128866666D02*
X122553628Y-129199999D01*
X123029819Y-129438094D02*
X122029819Y-129438094D01*
X122029819Y-129438094D02*
X122029819Y-129057142D01*
X122029819Y-129057142D02*
X122077438Y-128961904D01*
X122077438Y-128961904D02*
X122125057Y-128914285D01*
X122125057Y-128914285D02*
X122220295Y-128866666D01*
X122220295Y-128866666D02*
X122363152Y-128866666D01*
X122363152Y-128866666D02*
X122458390Y-128914285D01*
X122458390Y-128914285D02*
X122506009Y-128961904D01*
X122506009Y-128961904D02*
X122553628Y-129057142D01*
X122553628Y-129057142D02*
X122553628Y-129438094D01*
X122125057Y-128485713D02*
X122077438Y-128438094D01*
X122077438Y-128438094D02*
X122029819Y-128342856D01*
X122029819Y-128342856D02*
X122029819Y-128104761D01*
X122029819Y-128104761D02*
X122077438Y-128009523D01*
X122077438Y-128009523D02*
X122125057Y-127961904D01*
X122125057Y-127961904D02*
X122220295Y-127914285D01*
X122220295Y-127914285D02*
X122315533Y-127914285D01*
X122315533Y-127914285D02*
X122458390Y-127961904D01*
X122458390Y-127961904D02*
X123029819Y-128533332D01*
X123029819Y-128533332D02*
X123029819Y-127914285D01*
X126154819Y-128666666D02*
X125678628Y-128999999D01*
X126154819Y-129238094D02*
X125154819Y-129238094D01*
X125154819Y-129238094D02*
X125154819Y-128857142D01*
X125154819Y-128857142D02*
X125202438Y-128761904D01*
X125202438Y-128761904D02*
X125250057Y-128714285D01*
X125250057Y-128714285D02*
X125345295Y-128666666D01*
X125345295Y-128666666D02*
X125488152Y-128666666D01*
X125488152Y-128666666D02*
X125583390Y-128714285D01*
X125583390Y-128714285D02*
X125631009Y-128761904D01*
X125631009Y-128761904D02*
X125678628Y-128857142D01*
X125678628Y-128857142D02*
X125678628Y-129238094D01*
X126154819Y-127714285D02*
X126154819Y-128285713D01*
X126154819Y-127999999D02*
X125154819Y-127999999D01*
X125154819Y-127999999D02*
X125297676Y-128095237D01*
X125297676Y-128095237D02*
X125392914Y-128190475D01*
X125392914Y-128190475D02*
X125440533Y-128285713D01*
X128954819Y-87391666D02*
X128954819Y-87867856D01*
X128954819Y-87867856D02*
X127954819Y-87867856D01*
X128859580Y-86486904D02*
X128907200Y-86534523D01*
X128907200Y-86534523D02*
X128954819Y-86677380D01*
X128954819Y-86677380D02*
X128954819Y-86772618D01*
X128954819Y-86772618D02*
X128907200Y-86915475D01*
X128907200Y-86915475D02*
X128811961Y-87010713D01*
X128811961Y-87010713D02*
X128716723Y-87058332D01*
X128716723Y-87058332D02*
X128526247Y-87105951D01*
X128526247Y-87105951D02*
X128383390Y-87105951D01*
X128383390Y-87105951D02*
X128192914Y-87058332D01*
X128192914Y-87058332D02*
X128097676Y-87010713D01*
X128097676Y-87010713D02*
X128002438Y-86915475D01*
X128002438Y-86915475D02*
X127954819Y-86772618D01*
X127954819Y-86772618D02*
X127954819Y-86677380D01*
X127954819Y-86677380D02*
X128002438Y-86534523D01*
X128002438Y-86534523D02*
X128050057Y-86486904D01*
X128954819Y-86058332D02*
X127954819Y-86058332D01*
X127954819Y-86058332D02*
X127954819Y-85820237D01*
X127954819Y-85820237D02*
X128002438Y-85677380D01*
X128002438Y-85677380D02*
X128097676Y-85582142D01*
X128097676Y-85582142D02*
X128192914Y-85534523D01*
X128192914Y-85534523D02*
X128383390Y-85486904D01*
X128383390Y-85486904D02*
X128526247Y-85486904D01*
X128526247Y-85486904D02*
X128716723Y-85534523D01*
X128716723Y-85534523D02*
X128811961Y-85582142D01*
X128811961Y-85582142D02*
X128907200Y-85677380D01*
X128907200Y-85677380D02*
X128954819Y-85820237D01*
X128954819Y-85820237D02*
X128954819Y-86058332D01*
X128954819Y-84534523D02*
X128954819Y-85105951D01*
X128954819Y-84820237D02*
X127954819Y-84820237D01*
X127954819Y-84820237D02*
X128097676Y-84915475D01*
X128097676Y-84915475D02*
X128192914Y-85010713D01*
X128192914Y-85010713D02*
X128240533Y-85105951D01*
X111627200Y-100453332D02*
X111674819Y-100310475D01*
X111674819Y-100310475D02*
X111674819Y-100072380D01*
X111674819Y-100072380D02*
X111627200Y-99977142D01*
X111627200Y-99977142D02*
X111579580Y-99929523D01*
X111579580Y-99929523D02*
X111484342Y-99881904D01*
X111484342Y-99881904D02*
X111389104Y-99881904D01*
X111389104Y-99881904D02*
X111293866Y-99929523D01*
X111293866Y-99929523D02*
X111246247Y-99977142D01*
X111246247Y-99977142D02*
X111198628Y-100072380D01*
X111198628Y-100072380D02*
X111151009Y-100262856D01*
X111151009Y-100262856D02*
X111103390Y-100358094D01*
X111103390Y-100358094D02*
X111055771Y-100405713D01*
X111055771Y-100405713D02*
X110960533Y-100453332D01*
X110960533Y-100453332D02*
X110865295Y-100453332D01*
X110865295Y-100453332D02*
X110770057Y-100405713D01*
X110770057Y-100405713D02*
X110722438Y-100358094D01*
X110722438Y-100358094D02*
X110674819Y-100262856D01*
X110674819Y-100262856D02*
X110674819Y-100024761D01*
X110674819Y-100024761D02*
X110722438Y-99881904D01*
X110674819Y-99548570D02*
X111674819Y-99310475D01*
X111674819Y-99310475D02*
X110960533Y-99119999D01*
X110960533Y-99119999D02*
X111674819Y-98929523D01*
X111674819Y-98929523D02*
X110674819Y-98691428D01*
X111674819Y-97786666D02*
X111674819Y-98358094D01*
X111674819Y-98072380D02*
X110674819Y-98072380D01*
X110674819Y-98072380D02*
X110817676Y-98167618D01*
X110817676Y-98167618D02*
X110912914Y-98262856D01*
X110912914Y-98262856D02*
X110960533Y-98358094D01*
D11*
%TO.C,R2*%
X123077500Y-125967258D02*
X123077500Y-125492742D01*
X122032500Y-125967258D02*
X122032500Y-125492742D01*
%TO.C,R1*%
X126252500Y-125967258D02*
X126252500Y-125492742D01*
X125207500Y-125967258D02*
X125207500Y-125492742D01*
%TO.C,LCD1*%
X132530000Y-130720000D02*
X131200000Y-130720000D01*
X132530000Y-129390000D02*
X132530000Y-130720000D01*
X132530000Y-128120000D02*
X132530000Y-79800000D01*
X132530000Y-128120000D02*
X129870000Y-128120000D01*
X132530000Y-79800000D02*
X129870000Y-79800000D01*
X129870000Y-128120000D02*
X129870000Y-79800000D01*
%TO.C,SW1*%
X110220000Y-106390000D02*
X108890000Y-106390000D01*
X104280000Y-106390000D02*
X105610000Y-106390000D01*
X110220000Y-91850000D02*
X110220000Y-106390000D01*
X108890000Y-91850000D02*
X110220000Y-91850000D01*
X105610000Y-91850000D02*
X104280000Y-91850000D01*
X104280000Y-91850000D02*
X104280000Y-106390000D01*
%TO.C,PWR1*%
X110230000Y-79080000D02*
X107630000Y-79080000D01*
X112830000Y-76420000D02*
X112830000Y-77750000D01*
X111500000Y-76420000D02*
X112830000Y-76420000D01*
X110230000Y-76420000D02*
X110230000Y-79080000D01*
X110230000Y-76420000D02*
X107630000Y-76420000D01*
X107630000Y-76420000D02*
X107630000Y-79080000D01*
%TD*%
M02*
