%TF.GenerationSoftware,KiCad,Pcbnew,7.0.7*%
%TF.CreationDate,2023-09-18T17:32:58-06:00*%
%TF.ProjectId,hygienie_pcb,68796769-656e-4696-955f-7063622e6b69,00*%
%TF.SameCoordinates,Original*%
%TF.FileFunction,Copper,L1,Top*%
%TF.FilePolarity,Positive*%
%FSLAX46Y46*%
G04 Gerber Fmt 4.6, Leading zero omitted, Abs format (unit mm)*
G04 Created by KiCad (PCBNEW 7.0.7) date 2023-09-18 17:32:58*
%MOMM*%
%LPD*%
G01*
G04 APERTURE LIST*
G04 Aperture macros list*
%AMRoundRect*
0 Rectangle with rounded corners*
0 $1 Rounding radius*
0 $2 $3 $4 $5 $6 $7 $8 $9 X,Y pos of 4 corners*
0 Add a 4 corners polygon primitive as box body*
4,1,4,$2,$3,$4,$5,$6,$7,$8,$9,$2,$3,0*
0 Add four circle primitives for the rounded corners*
1,1,$1+$1,$2,$3*
1,1,$1+$1,$4,$5*
1,1,$1+$1,$6,$7*
1,1,$1+$1,$8,$9*
0 Add four rect primitives between the rounded corners*
20,1,$1+$1,$2,$3,$4,$5,0*
20,1,$1+$1,$4,$5,$6,$7,0*
20,1,$1+$1,$6,$7,$8,$9,0*
20,1,$1+$1,$8,$9,$2,$3,0*%
G04 Aperture macros list end*
%TA.AperFunction,ComponentPad*%
%ADD10C,1.665000*%
%TD*%
%TA.AperFunction,ComponentPad*%
%ADD11R,1.665000X1.665000*%
%TD*%
%TA.AperFunction,SMDPad,CuDef*%
%ADD12RoundRect,0.200000X0.275000X-0.200000X0.275000X0.200000X-0.275000X0.200000X-0.275000X-0.200000X0*%
%TD*%
%TA.AperFunction,ComponentPad*%
%ADD13R,1.700000X1.700000*%
%TD*%
%TA.AperFunction,ComponentPad*%
%ADD14O,1.700000X1.700000*%
%TD*%
%TA.AperFunction,ComponentPad*%
%ADD15O,2.800000X2.800000*%
%TD*%
%TA.AperFunction,ComponentPad*%
%ADD16C,2.800000*%
%TD*%
%TA.AperFunction,ViaPad*%
%ADD17C,0.900000*%
%TD*%
%TA.AperFunction,Conductor*%
%ADD18C,1.000000*%
%TD*%
%TA.AperFunction,Conductor*%
%ADD19C,0.500000*%
%TD*%
%TA.AperFunction,Conductor*%
%ADD20C,2.000000*%
%TD*%
G04 APERTURE END LIST*
D10*
%TO.P,FireBeetle1,30,SCL/IO22*%
%TO.N,/SCL*%
X125250000Y-99115000D03*
%TO.P,FireBeetle1,29,SDA/IO21*%
%TO.N,/SDA*%
X125250000Y-101655000D03*
%TO.P,FireBeetle1,18,VCC*%
%TO.N,VCC*%
X99850000Y-83875000D03*
%TO.P,FireBeetle1,17,3V3*%
%TO.N,+3.3V*%
X99850000Y-86415000D03*
%TO.P,FireBeetle1,16,AREF*%
%TO.N,unconnected-(FireBeetle1-AREF-Pad16)*%
X99850000Y-88955000D03*
%TO.P,FireBeetle1,15,GND*%
%TO.N,GNDREF*%
X99850000Y-91495000D03*
%TO.P,FireBeetle1,14,IO11/CMD*%
%TO.N,unconnected-(FireBeetle1-IO11{slash}CMD-Pad14)*%
X99850000Y-94035000D03*
%TO.P,FireBeetle1,13,IO8/SD1*%
%TO.N,unconnected-(FireBeetle1-IO8{slash}SD1-Pad13)*%
X99850000Y-96575000D03*
%TO.P,FireBeetle1,12,IO7/SD0*%
%TO.N,unconnected-(FireBeetle1-IO7{slash}SD0-Pad12)*%
X99850000Y-99115000D03*
%TO.P,FireBeetle1,11,IO6/CLK*%
%TO.N,unconnected-(FireBeetle1-IO6{slash}CLK-Pad11)*%
X99850000Y-101655000D03*
%TO.P,FireBeetle1,10,IO2/D9*%
%TO.N,unconnected-(FireBeetle1-IO2{slash}D9-Pad10)*%
X99850000Y-104195000D03*
%TO.P,FireBeetle1,9,IO5/D8*%
%TO.N,unconnected-(FireBeetle1-IO5{slash}D8-Pad9)*%
X99850000Y-106735000D03*
%TO.P,FireBeetle1,8,IO13/D7*%
%TO.N,unconnected-(FireBeetle1-IO13{slash}D7-Pad8)*%
X99850000Y-109275000D03*
%TO.P,FireBeetle1,7,IO10/D6*%
%TO.N,unconnected-(FireBeetle1-IO10{slash}D6-Pad7)*%
X99850000Y-111815000D03*
%TO.P,FireBeetle1,6,IO9/D5*%
%TO.N,unconnected-(FireBeetle1-IO9{slash}D5-Pad6)*%
X99850000Y-114355000D03*
%TO.P,FireBeetle1,5,IO27/D4*%
%TO.N,/Reed Switch*%
X99850000Y-116895000D03*
%TO.P,FireBeetle1,4,IO26/D3*%
%TO.N,unconnected-(FireBeetle1-IO26{slash}D3-Pad4)*%
X99850000Y-119435000D03*
%TO.P,FireBeetle1,3,IO25/D2*%
%TO.N,/~{RST}*%
X99850000Y-121975000D03*
%TO.P,FireBeetle1,2,IO1/TXD*%
%TO.N,unconnected-(FireBeetle1-IO1{slash}TXD-Pad2)*%
X99850000Y-124515000D03*
D11*
%TO.P,FireBeetle1,1,IO3/RXD*%
%TO.N,unconnected-(FireBeetle1-IO3{slash}RXD-Pad1)*%
X99850000Y-127055000D03*
%TD*%
D12*
%TO.P,R2,2*%
%TO.N,/SDA*%
X122555000Y-124905000D03*
%TO.P,R2,1*%
%TO.N,+3.3V*%
X122555000Y-126555000D03*
%TD*%
%TO.P,R1,2*%
%TO.N,/SCL*%
X125730000Y-124905000D03*
%TO.P,R1,1*%
%TO.N,+3.3V*%
X125730000Y-126555000D03*
%TD*%
D13*
%TO.P,LCD1,1,VSS*%
%TO.N,GNDREF*%
X131200000Y-129390000D03*
D14*
%TO.P,LCD1,2,VDD*%
%TO.N,+3.3V*%
X131200000Y-126850000D03*
%TO.P,LCD1,3,NC*%
%TO.N,unconnected-(LCD1-NC-Pad3)*%
X131200000Y-124310000D03*
%TO.P,LCD1,4,SA0*%
%TO.N,GNDREF*%
X131200000Y-121770000D03*
%TO.P,LCD1,5,VSS*%
X131200000Y-119230000D03*
%TO.P,LCD1,6,VSS*%
X131200000Y-116690000D03*
%TO.P,LCD1,7,SCL*%
%TO.N,/SCL*%
X131200000Y-114150000D03*
%TO.P,LCD1,8,SDA_IN*%
%TO.N,/SDA*%
X131200000Y-111610000D03*
%TO.P,LCD1,9,SDA_OUT*%
X131200000Y-109070000D03*
%TO.P,LCD1,10,VSS*%
%TO.N,GNDREF*%
X131200000Y-106530000D03*
%TO.P,LCD1,11,VSS*%
X131200000Y-103990000D03*
%TO.P,LCD1,12,VSS*%
X131200000Y-101450000D03*
%TO.P,LCD1,13,VSS*%
X131200000Y-98910000D03*
%TO.P,LCD1,14,VSS*%
X131200000Y-96370000D03*
%TO.P,LCD1,15,NC*%
%TO.N,unconnected-(LCD1-NC-Pad15)*%
X131200000Y-93830000D03*
%TO.P,LCD1,16,~{RES}*%
%TO.N,/~{RST}*%
X131200000Y-91290000D03*
%TO.P,LCD1,17,VSS*%
%TO.N,GNDREF*%
X131200000Y-88750000D03*
%TO.P,LCD1,18,NC*%
%TO.N,unconnected-(LCD1-NC-Pad18)*%
X131200000Y-86210000D03*
%TO.P,LCD1,19,BS2*%
%TO.N,GNDREF*%
X131200000Y-83670000D03*
%TO.P,LCD1,20,BS1*%
%TO.N,+3.3V*%
X131200000Y-81130000D03*
%TD*%
D15*
%TO.P,SW1,2,2*%
%TO.N,/Reed Switch*%
X107250000Y-106740000D03*
D16*
%TO.P,SW1,1,1*%
%TO.N,GNDREF*%
X107250000Y-91500000D03*
%TD*%
D14*
%TO.P,PWR1,2,Pin_2*%
%TO.N,VCC*%
X108960000Y-77750000D03*
D13*
%TO.P,PWR1,1,Pin_1*%
%TO.N,GNDREF*%
X111500000Y-77750000D03*
%TD*%
D17*
%TO.N,/SDA*%
X125250000Y-111425000D03*
%TD*%
D18*
%TO.N,VCC*%
X108960000Y-77750000D02*
X105975000Y-77750000D01*
X105975000Y-77750000D02*
X99850000Y-83875000D01*
%TO.N,GNDREF*%
X104320000Y-91500000D02*
X107250000Y-91500000D01*
X99850000Y-91495000D02*
X104315000Y-91495000D01*
D19*
%TO.N,/Reed Switch*%
X99850000Y-116895000D02*
X107250000Y-109495000D01*
X107250000Y-109495000D02*
X107250000Y-106740000D01*
D18*
%TO.N,GNDREF*%
X104315000Y-91495000D02*
X104320000Y-91500000D01*
D19*
%TO.N,/~{RST}*%
X120750000Y-99975000D02*
X129435000Y-91290000D01*
X120750000Y-102625000D02*
X120750000Y-99975000D01*
X101400000Y-121975000D02*
X120750000Y-102625000D01*
X99850000Y-121975000D02*
X101400000Y-121975000D01*
X129435000Y-91290000D02*
X131200000Y-91290000D01*
D18*
%TO.N,+3.3V*%
X125170000Y-81130000D02*
X131200000Y-81130000D01*
X119885000Y-86415000D02*
X125170000Y-81130000D01*
X99850000Y-86415000D02*
X119885000Y-86415000D01*
D19*
%TO.N,/SDA*%
X122555000Y-114120000D02*
X122555000Y-124905000D01*
X125250000Y-111425000D02*
X122555000Y-114120000D01*
X125250000Y-103120000D02*
X131200000Y-109070000D01*
X125250000Y-101655000D02*
X125250000Y-103120000D01*
%TO.N,/SCL*%
X123175000Y-106030000D02*
X123175000Y-101190000D01*
X123175000Y-101190000D02*
X125250000Y-99115000D01*
X130175000Y-113030000D02*
X123175000Y-106030000D01*
X130175000Y-115175000D02*
X130175000Y-113030000D01*
D18*
%TO.N,+3.3V*%
X131200000Y-126850000D02*
X122850000Y-126850000D01*
D19*
X122850000Y-126850000D02*
X122555000Y-126555000D01*
%TO.N,/SCL*%
X130295000Y-115055000D02*
X125730000Y-119620000D01*
X131200000Y-114055000D02*
X131200000Y-114150000D01*
X125730000Y-119620000D02*
X125730000Y-124905000D01*
X130175000Y-113030000D02*
X131200000Y-114055000D01*
X131200000Y-114150000D02*
X130295000Y-115055000D01*
D20*
%TO.N,/SDA*%
X131200000Y-111610000D02*
X131200000Y-109070000D01*
D18*
%TO.N,GNDREF*%
X130660000Y-88750000D02*
X131200000Y-88750000D01*
%TD*%
%TA.AperFunction,Conductor*%
%TO.N,/SCL*%
G36*
X130388375Y-113257828D02*
G01*
X130395786Y-113265281D01*
X131065047Y-113997946D01*
X131095727Y-114060719D01*
X131087599Y-114130114D01*
X131066614Y-114163458D01*
X130348039Y-114980660D01*
X130288988Y-115018006D01*
X130219120Y-115017498D01*
X130160618Y-114979297D01*
X130132056Y-114915532D01*
X130130982Y-114894841D01*
X130180296Y-113344966D01*
X130202102Y-113278588D01*
X130256335Y-113234536D01*
X130325774Y-113226796D01*
X130388375Y-113257828D01*
G37*
%TD.AperFunction*%
%TD*%
M02*
