%TF.GenerationSoftware,KiCad,Pcbnew,7.0.7*%
%TF.CreationDate,2023-09-15T19:51:53-06:00*%
%TF.ProjectId,hygienie_pcb,68796769-656e-4696-955f-7063622e6b69,00*%
%TF.SameCoordinates,Original*%
%TF.FileFunction,Drillmap*%
%TF.FilePolarity,Positive*%
%FSLAX45Y45*%
G04 Gerber Fmt 4.5, Leading zero omitted, Abs format (unit mm)*
G04 Created by KiCad (PCBNEW 7.0.7) date 2023-09-15 19:51:53*
%MOMM*%
%LPD*%
G01*
G04 APERTURE LIST*
%ADD10C,0.100000*%
%ADD11C,0.200000*%
G04 APERTURE END LIST*
D10*
X8060000Y-7366000D02*
X13370000Y-7366000D01*
X13370000Y-13716000D01*
X8060000Y-13716000D01*
X8060000Y-7366000D01*
D11*
X8315777Y-14032484D02*
X8315777Y-13832484D01*
X8315777Y-13832484D02*
X8363396Y-13832484D01*
X8363396Y-13832484D02*
X8391967Y-13842008D01*
X8391967Y-13842008D02*
X8411015Y-13861055D01*
X8411015Y-13861055D02*
X8420539Y-13880103D01*
X8420539Y-13880103D02*
X8430063Y-13918198D01*
X8430063Y-13918198D02*
X8430063Y-13946769D01*
X8430063Y-13946769D02*
X8420539Y-13984865D01*
X8420539Y-13984865D02*
X8411015Y-14003912D01*
X8411015Y-14003912D02*
X8391967Y-14022960D01*
X8391967Y-14022960D02*
X8363396Y-14032484D01*
X8363396Y-14032484D02*
X8315777Y-14032484D01*
X8515777Y-14032484D02*
X8515777Y-13899150D01*
X8515777Y-13937246D02*
X8525301Y-13918198D01*
X8525301Y-13918198D02*
X8534824Y-13908674D01*
X8534824Y-13908674D02*
X8553872Y-13899150D01*
X8553872Y-13899150D02*
X8572920Y-13899150D01*
X8639586Y-14032484D02*
X8639586Y-13899150D01*
X8639586Y-13832484D02*
X8630063Y-13842008D01*
X8630063Y-13842008D02*
X8639586Y-13851531D01*
X8639586Y-13851531D02*
X8649110Y-13842008D01*
X8649110Y-13842008D02*
X8639586Y-13832484D01*
X8639586Y-13832484D02*
X8639586Y-13851531D01*
X8763396Y-14032484D02*
X8744348Y-14022960D01*
X8744348Y-14022960D02*
X8734824Y-14003912D01*
X8734824Y-14003912D02*
X8734824Y-13832484D01*
X8868158Y-14032484D02*
X8849110Y-14022960D01*
X8849110Y-14022960D02*
X8839586Y-14003912D01*
X8839586Y-14003912D02*
X8839586Y-13832484D01*
X9096729Y-14032484D02*
X9096729Y-13832484D01*
X9096729Y-13832484D02*
X9163396Y-13975341D01*
X9163396Y-13975341D02*
X9230063Y-13832484D01*
X9230063Y-13832484D02*
X9230063Y-14032484D01*
X9411015Y-14032484D02*
X9411015Y-13927722D01*
X9411015Y-13927722D02*
X9401491Y-13908674D01*
X9401491Y-13908674D02*
X9382444Y-13899150D01*
X9382444Y-13899150D02*
X9344348Y-13899150D01*
X9344348Y-13899150D02*
X9325301Y-13908674D01*
X9411015Y-14022960D02*
X9391967Y-14032484D01*
X9391967Y-14032484D02*
X9344348Y-14032484D01*
X9344348Y-14032484D02*
X9325301Y-14022960D01*
X9325301Y-14022960D02*
X9315777Y-14003912D01*
X9315777Y-14003912D02*
X9315777Y-13984865D01*
X9315777Y-13984865D02*
X9325301Y-13965817D01*
X9325301Y-13965817D02*
X9344348Y-13956293D01*
X9344348Y-13956293D02*
X9391967Y-13956293D01*
X9391967Y-13956293D02*
X9411015Y-13946769D01*
X9506253Y-13899150D02*
X9506253Y-14099150D01*
X9506253Y-13908674D02*
X9525301Y-13899150D01*
X9525301Y-13899150D02*
X9563396Y-13899150D01*
X9563396Y-13899150D02*
X9582444Y-13908674D01*
X9582444Y-13908674D02*
X9591967Y-13918198D01*
X9591967Y-13918198D02*
X9601491Y-13937246D01*
X9601491Y-13937246D02*
X9601491Y-13994388D01*
X9601491Y-13994388D02*
X9591967Y-14013436D01*
X9591967Y-14013436D02*
X9582444Y-14022960D01*
X9582444Y-14022960D02*
X9563396Y-14032484D01*
X9563396Y-14032484D02*
X9525301Y-14032484D01*
X9525301Y-14032484D02*
X9506253Y-14022960D01*
X9687205Y-14013436D02*
X9696729Y-14022960D01*
X9696729Y-14022960D02*
X9687205Y-14032484D01*
X9687205Y-14032484D02*
X9677682Y-14022960D01*
X9677682Y-14022960D02*
X9687205Y-14013436D01*
X9687205Y-14013436D02*
X9687205Y-14032484D01*
X9687205Y-13908674D02*
X9696729Y-13918198D01*
X9696729Y-13918198D02*
X9687205Y-13927722D01*
X9687205Y-13927722D02*
X9677682Y-13918198D01*
X9677682Y-13918198D02*
X9687205Y-13908674D01*
X9687205Y-13908674D02*
X9687205Y-13927722D01*
M02*
