%TF.GenerationSoftware,KiCad,Pcbnew,7.0.7*%
%TF.CreationDate,2023-09-15T19:51:53-06:00*%
%TF.ProjectId,hygienie_pcb,68796769-656e-4696-955f-7063622e6b69,00*%
%TF.SameCoordinates,Original*%
%TF.FileFunction,Drillmap*%
%TF.FilePolarity,Positive*%
%FSLAX45Y45*%
G04 Gerber Fmt 4.5, Leading zero omitted, Abs format (unit mm)*
G04 Created by KiCad (PCBNEW 7.0.7) date 2023-09-15 19:51:53*
%MOMM*%
%LPD*%
G01*
G04 APERTURE LIST*
%ADD10C,0.100000*%
%ADD11C,0.200000*%
%ADD12C,0.050000*%
%ADD13C,0.111000*%
%ADD14C,0.140000*%
G04 APERTURE END LIST*
D10*
X8060000Y-7366000D02*
X13370000Y-7366000D01*
X13370000Y-13716000D01*
X8060000Y-13716000D01*
X8060000Y-7366000D01*
D11*
D12*
X12135000Y-10635000D02*
X12185000Y-10685000D01*
X12185000Y-10635000D02*
X12135000Y-10685000D01*
D10*
X8622500Y-8382500D02*
G75*
G03*
X8622500Y-8382500I-50000J0D01*
G01*
X8622500Y-8636500D02*
G75*
G03*
X8622500Y-8636500I-50000J0D01*
G01*
X13170000Y-8113000D02*
G75*
G03*
X13170000Y-8113000I-50000J0D01*
G01*
X13170000Y-8367000D02*
G75*
G03*
X13170000Y-8367000I-50000J0D01*
G01*
X13170000Y-8621000D02*
G75*
G03*
X13170000Y-8621000I-50000J0D01*
G01*
X13170000Y-8875000D02*
G75*
G03*
X13170000Y-8875000I-50000J0D01*
G01*
X13170000Y-9129000D02*
G75*
G03*
X13170000Y-9129000I-50000J0D01*
G01*
X13170000Y-9383000D02*
G75*
G03*
X13170000Y-9383000I-50000J0D01*
G01*
X13170000Y-9637000D02*
G75*
G03*
X13170000Y-9637000I-50000J0D01*
G01*
X13170000Y-9891000D02*
G75*
G03*
X13170000Y-9891000I-50000J0D01*
G01*
X13170000Y-10145000D02*
G75*
G03*
X13170000Y-10145000I-50000J0D01*
G01*
X13170000Y-10399000D02*
G75*
G03*
X13170000Y-10399000I-50000J0D01*
G01*
X13170000Y-10653000D02*
G75*
G03*
X13170000Y-10653000I-50000J0D01*
G01*
X13170000Y-10907000D02*
G75*
G03*
X13170000Y-10907000I-50000J0D01*
G01*
X13170000Y-11161000D02*
G75*
G03*
X13170000Y-11161000I-50000J0D01*
G01*
X13170000Y-11415000D02*
G75*
G03*
X13170000Y-11415000I-50000J0D01*
G01*
X13170000Y-11669000D02*
G75*
G03*
X13170000Y-11669000I-50000J0D01*
G01*
X13170000Y-11923000D02*
G75*
G03*
X13170000Y-11923000I-50000J0D01*
G01*
X13170000Y-12177000D02*
G75*
G03*
X13170000Y-12177000I-50000J0D01*
G01*
X13170000Y-12431000D02*
G75*
G03*
X13170000Y-12431000I-50000J0D01*
G01*
X13170000Y-12685000D02*
G75*
G03*
X13170000Y-12685000I-50000J0D01*
G01*
X13170000Y-12939000D02*
G75*
G03*
X13170000Y-12939000I-50000J0D01*
G01*
D13*
X9652000Y-8326500D02*
X9652000Y-8437500D01*
X9596500Y-8382000D02*
X9707500Y-8382000D01*
X9652000Y-8580500D02*
X9652000Y-8691500D01*
X9596500Y-8636000D02*
X9707500Y-8636000D01*
X9652000Y-8834500D02*
X9652000Y-8945500D01*
X9596500Y-8890000D02*
X9707500Y-8890000D01*
X9652000Y-9088500D02*
X9652000Y-9199500D01*
X9596500Y-9144000D02*
X9707500Y-9144000D01*
X9652000Y-9342500D02*
X9652000Y-9453500D01*
X9596500Y-9398000D02*
X9707500Y-9398000D01*
X9652000Y-9596500D02*
X9652000Y-9707500D01*
X9596500Y-9652000D02*
X9707500Y-9652000D01*
X9652000Y-9850500D02*
X9652000Y-9961500D01*
X9596500Y-9906000D02*
X9707500Y-9906000D01*
X9652000Y-10104500D02*
X9652000Y-10215500D01*
X9596500Y-10160000D02*
X9707500Y-10160000D01*
X9652000Y-10358500D02*
X9652000Y-10469500D01*
X9596500Y-10414000D02*
X9707500Y-10414000D01*
X9652000Y-10612500D02*
X9652000Y-10723500D01*
X9596500Y-10668000D02*
X9707500Y-10668000D01*
X9652000Y-10866500D02*
X9652000Y-10977500D01*
X9596500Y-10922000D02*
X9707500Y-10922000D01*
X9652000Y-11120500D02*
X9652000Y-11231500D01*
X9596500Y-11176000D02*
X9707500Y-11176000D01*
X9652000Y-11374500D02*
X9652000Y-11485500D01*
X9596500Y-11430000D02*
X9707500Y-11430000D01*
X9652000Y-11628500D02*
X9652000Y-11739500D01*
X9596500Y-11684000D02*
X9707500Y-11684000D01*
X9652000Y-11882500D02*
X9652000Y-11993500D01*
X9596500Y-11938000D02*
X9707500Y-11938000D01*
X9652000Y-12136500D02*
X9652000Y-12247500D01*
X9596500Y-12192000D02*
X9707500Y-12192000D01*
X9652000Y-12390500D02*
X9652000Y-12501500D01*
X9596500Y-12446000D02*
X9707500Y-12446000D01*
X9652000Y-12644500D02*
X9652000Y-12755500D01*
X9596500Y-12700000D02*
X9707500Y-12700000D01*
X12192000Y-9850500D02*
X12192000Y-9961500D01*
X12136500Y-9906000D02*
X12247500Y-9906000D01*
X12192000Y-10104500D02*
X12192000Y-10215500D01*
X12136500Y-10160000D02*
X12247500Y-10160000D01*
D14*
X8621998Y-10082498D02*
X8621998Y-9983502D01*
X8523002Y-9983502D01*
X8523002Y-10082498D01*
X8621998Y-10082498D01*
X8621998Y-11606498D02*
X8621998Y-11507502D01*
X8523002Y-11507502D01*
X8523002Y-11606498D01*
X8621998Y-11606498D01*
D11*
X8315777Y-14032484D02*
X8315777Y-13832484D01*
X8315777Y-13832484D02*
X8363396Y-13832484D01*
X8363396Y-13832484D02*
X8391967Y-13842008D01*
X8391967Y-13842008D02*
X8411015Y-13861055D01*
X8411015Y-13861055D02*
X8420539Y-13880103D01*
X8420539Y-13880103D02*
X8430063Y-13918198D01*
X8430063Y-13918198D02*
X8430063Y-13946769D01*
X8430063Y-13946769D02*
X8420539Y-13984865D01*
X8420539Y-13984865D02*
X8411015Y-14003912D01*
X8411015Y-14003912D02*
X8391967Y-14022960D01*
X8391967Y-14022960D02*
X8363396Y-14032484D01*
X8363396Y-14032484D02*
X8315777Y-14032484D01*
X8515777Y-14032484D02*
X8515777Y-13899150D01*
X8515777Y-13937246D02*
X8525301Y-13918198D01*
X8525301Y-13918198D02*
X8534824Y-13908674D01*
X8534824Y-13908674D02*
X8553872Y-13899150D01*
X8553872Y-13899150D02*
X8572920Y-13899150D01*
X8639586Y-14032484D02*
X8639586Y-13899150D01*
X8639586Y-13832484D02*
X8630063Y-13842008D01*
X8630063Y-13842008D02*
X8639586Y-13851531D01*
X8639586Y-13851531D02*
X8649110Y-13842008D01*
X8649110Y-13842008D02*
X8639586Y-13832484D01*
X8639586Y-13832484D02*
X8639586Y-13851531D01*
X8763396Y-14032484D02*
X8744348Y-14022960D01*
X8744348Y-14022960D02*
X8734824Y-14003912D01*
X8734824Y-14003912D02*
X8734824Y-13832484D01*
X8868158Y-14032484D02*
X8849110Y-14022960D01*
X8849110Y-14022960D02*
X8839586Y-14003912D01*
X8839586Y-14003912D02*
X8839586Y-13832484D01*
X9096729Y-14032484D02*
X9096729Y-13832484D01*
X9096729Y-13832484D02*
X9163396Y-13975341D01*
X9163396Y-13975341D02*
X9230063Y-13832484D01*
X9230063Y-13832484D02*
X9230063Y-14032484D01*
X9411015Y-14032484D02*
X9411015Y-13927722D01*
X9411015Y-13927722D02*
X9401491Y-13908674D01*
X9401491Y-13908674D02*
X9382444Y-13899150D01*
X9382444Y-13899150D02*
X9344348Y-13899150D01*
X9344348Y-13899150D02*
X9325301Y-13908674D01*
X9411015Y-14022960D02*
X9391967Y-14032484D01*
X9391967Y-14032484D02*
X9344348Y-14032484D01*
X9344348Y-14032484D02*
X9325301Y-14022960D01*
X9325301Y-14022960D02*
X9315777Y-14003912D01*
X9315777Y-14003912D02*
X9315777Y-13984865D01*
X9315777Y-13984865D02*
X9325301Y-13965817D01*
X9325301Y-13965817D02*
X9344348Y-13956293D01*
X9344348Y-13956293D02*
X9391967Y-13956293D01*
X9391967Y-13956293D02*
X9411015Y-13946769D01*
X9506253Y-13899150D02*
X9506253Y-14099150D01*
X9506253Y-13908674D02*
X9525301Y-13899150D01*
X9525301Y-13899150D02*
X9563396Y-13899150D01*
X9563396Y-13899150D02*
X9582444Y-13908674D01*
X9582444Y-13908674D02*
X9591967Y-13918198D01*
X9591967Y-13918198D02*
X9601491Y-13937246D01*
X9601491Y-13937246D02*
X9601491Y-13994388D01*
X9601491Y-13994388D02*
X9591967Y-14013436D01*
X9591967Y-14013436D02*
X9582444Y-14022960D01*
X9582444Y-14022960D02*
X9563396Y-14032484D01*
X9563396Y-14032484D02*
X9525301Y-14032484D01*
X9525301Y-14032484D02*
X9506253Y-14022960D01*
X9687205Y-14013436D02*
X9696729Y-14022960D01*
X9696729Y-14022960D02*
X9687205Y-14032484D01*
X9687205Y-14032484D02*
X9677682Y-14022960D01*
X9677682Y-14022960D02*
X9687205Y-14013436D01*
X9687205Y-14013436D02*
X9687205Y-14032484D01*
X9687205Y-13908674D02*
X9696729Y-13918198D01*
X9696729Y-13918198D02*
X9687205Y-13927722D01*
X9687205Y-13927722D02*
X9677682Y-13918198D01*
X9677682Y-13918198D02*
X9687205Y-13908674D01*
X9687205Y-13908674D02*
X9687205Y-13927722D01*
D12*
X8005000Y-14336000D02*
X8055000Y-14386000D01*
X8055000Y-14336000D02*
X8005000Y-14386000D01*
D11*
X8353872Y-14252484D02*
X8372920Y-14252484D01*
X8372920Y-14252484D02*
X8391967Y-14262008D01*
X8391967Y-14262008D02*
X8401491Y-14271531D01*
X8401491Y-14271531D02*
X8411015Y-14290579D01*
X8411015Y-14290579D02*
X8420539Y-14328674D01*
X8420539Y-14328674D02*
X8420539Y-14376293D01*
X8420539Y-14376293D02*
X8411015Y-14414388D01*
X8411015Y-14414388D02*
X8401491Y-14433436D01*
X8401491Y-14433436D02*
X8391967Y-14442960D01*
X8391967Y-14442960D02*
X8372920Y-14452484D01*
X8372920Y-14452484D02*
X8353872Y-14452484D01*
X8353872Y-14452484D02*
X8334824Y-14442960D01*
X8334824Y-14442960D02*
X8325301Y-14433436D01*
X8325301Y-14433436D02*
X8315777Y-14414388D01*
X8315777Y-14414388D02*
X8306253Y-14376293D01*
X8306253Y-14376293D02*
X8306253Y-14328674D01*
X8306253Y-14328674D02*
X8315777Y-14290579D01*
X8315777Y-14290579D02*
X8325301Y-14271531D01*
X8325301Y-14271531D02*
X8334824Y-14262008D01*
X8334824Y-14262008D02*
X8353872Y-14252484D01*
X8506253Y-14433436D02*
X8515777Y-14442960D01*
X8515777Y-14442960D02*
X8506253Y-14452484D01*
X8506253Y-14452484D02*
X8496729Y-14442960D01*
X8496729Y-14442960D02*
X8506253Y-14433436D01*
X8506253Y-14433436D02*
X8506253Y-14452484D01*
X8696729Y-14252484D02*
X8601491Y-14252484D01*
X8601491Y-14252484D02*
X8591967Y-14347722D01*
X8591967Y-14347722D02*
X8601491Y-14338198D01*
X8601491Y-14338198D02*
X8620539Y-14328674D01*
X8620539Y-14328674D02*
X8668158Y-14328674D01*
X8668158Y-14328674D02*
X8687205Y-14338198D01*
X8687205Y-14338198D02*
X8696729Y-14347722D01*
X8696729Y-14347722D02*
X8706253Y-14366769D01*
X8706253Y-14366769D02*
X8706253Y-14414388D01*
X8706253Y-14414388D02*
X8696729Y-14433436D01*
X8696729Y-14433436D02*
X8687205Y-14442960D01*
X8687205Y-14442960D02*
X8668158Y-14452484D01*
X8668158Y-14452484D02*
X8620539Y-14452484D01*
X8620539Y-14452484D02*
X8601491Y-14442960D01*
X8601491Y-14442960D02*
X8591967Y-14433436D01*
X8830063Y-14252484D02*
X8849110Y-14252484D01*
X8849110Y-14252484D02*
X8868158Y-14262008D01*
X8868158Y-14262008D02*
X8877682Y-14271531D01*
X8877682Y-14271531D02*
X8887205Y-14290579D01*
X8887205Y-14290579D02*
X8896729Y-14328674D01*
X8896729Y-14328674D02*
X8896729Y-14376293D01*
X8896729Y-14376293D02*
X8887205Y-14414388D01*
X8887205Y-14414388D02*
X8877682Y-14433436D01*
X8877682Y-14433436D02*
X8868158Y-14442960D01*
X8868158Y-14442960D02*
X8849110Y-14452484D01*
X8849110Y-14452484D02*
X8830063Y-14452484D01*
X8830063Y-14452484D02*
X8811015Y-14442960D01*
X8811015Y-14442960D02*
X8801491Y-14433436D01*
X8801491Y-14433436D02*
X8791967Y-14414388D01*
X8791967Y-14414388D02*
X8782444Y-14376293D01*
X8782444Y-14376293D02*
X8782444Y-14328674D01*
X8782444Y-14328674D02*
X8791967Y-14290579D01*
X8791967Y-14290579D02*
X8801491Y-14271531D01*
X8801491Y-14271531D02*
X8811015Y-14262008D01*
X8811015Y-14262008D02*
X8830063Y-14252484D01*
X9020539Y-14252484D02*
X9039586Y-14252484D01*
X9039586Y-14252484D02*
X9058634Y-14262008D01*
X9058634Y-14262008D02*
X9068158Y-14271531D01*
X9068158Y-14271531D02*
X9077682Y-14290579D01*
X9077682Y-14290579D02*
X9087205Y-14328674D01*
X9087205Y-14328674D02*
X9087205Y-14376293D01*
X9087205Y-14376293D02*
X9077682Y-14414388D01*
X9077682Y-14414388D02*
X9068158Y-14433436D01*
X9068158Y-14433436D02*
X9058634Y-14442960D01*
X9058634Y-14442960D02*
X9039586Y-14452484D01*
X9039586Y-14452484D02*
X9020539Y-14452484D01*
X9020539Y-14452484D02*
X9001491Y-14442960D01*
X9001491Y-14442960D02*
X8991967Y-14433436D01*
X8991967Y-14433436D02*
X8982444Y-14414388D01*
X8982444Y-14414388D02*
X8972920Y-14376293D01*
X8972920Y-14376293D02*
X8972920Y-14328674D01*
X8972920Y-14328674D02*
X8982444Y-14290579D01*
X8982444Y-14290579D02*
X8991967Y-14271531D01*
X8991967Y-14271531D02*
X9001491Y-14262008D01*
X9001491Y-14262008D02*
X9020539Y-14252484D01*
X9172920Y-14452484D02*
X9172920Y-14319150D01*
X9172920Y-14338198D02*
X9182444Y-14328674D01*
X9182444Y-14328674D02*
X9201491Y-14319150D01*
X9201491Y-14319150D02*
X9230063Y-14319150D01*
X9230063Y-14319150D02*
X9249110Y-14328674D01*
X9249110Y-14328674D02*
X9258634Y-14347722D01*
X9258634Y-14347722D02*
X9258634Y-14452484D01*
X9258634Y-14347722D02*
X9268158Y-14328674D01*
X9268158Y-14328674D02*
X9287205Y-14319150D01*
X9287205Y-14319150D02*
X9315777Y-14319150D01*
X9315777Y-14319150D02*
X9334825Y-14328674D01*
X9334825Y-14328674D02*
X9344348Y-14347722D01*
X9344348Y-14347722D02*
X9344348Y-14452484D01*
X9439586Y-14452484D02*
X9439586Y-14319150D01*
X9439586Y-14338198D02*
X9449110Y-14328674D01*
X9449110Y-14328674D02*
X9468158Y-14319150D01*
X9468158Y-14319150D02*
X9496729Y-14319150D01*
X9496729Y-14319150D02*
X9515777Y-14328674D01*
X9515777Y-14328674D02*
X9525301Y-14347722D01*
X9525301Y-14347722D02*
X9525301Y-14452484D01*
X9525301Y-14347722D02*
X9534825Y-14328674D01*
X9534825Y-14328674D02*
X9553872Y-14319150D01*
X9553872Y-14319150D02*
X9582444Y-14319150D01*
X9582444Y-14319150D02*
X9601491Y-14328674D01*
X9601491Y-14328674D02*
X9611015Y-14347722D01*
X9611015Y-14347722D02*
X9611015Y-14452484D01*
X10001491Y-14242960D02*
X9830063Y-14500103D01*
X10258634Y-14252484D02*
X10277682Y-14252484D01*
X10277682Y-14252484D02*
X10296729Y-14262008D01*
X10296729Y-14262008D02*
X10306253Y-14271531D01*
X10306253Y-14271531D02*
X10315777Y-14290579D01*
X10315777Y-14290579D02*
X10325301Y-14328674D01*
X10325301Y-14328674D02*
X10325301Y-14376293D01*
X10325301Y-14376293D02*
X10315777Y-14414388D01*
X10315777Y-14414388D02*
X10306253Y-14433436D01*
X10306253Y-14433436D02*
X10296729Y-14442960D01*
X10296729Y-14442960D02*
X10277682Y-14452484D01*
X10277682Y-14452484D02*
X10258634Y-14452484D01*
X10258634Y-14452484D02*
X10239587Y-14442960D01*
X10239587Y-14442960D02*
X10230063Y-14433436D01*
X10230063Y-14433436D02*
X10220539Y-14414388D01*
X10220539Y-14414388D02*
X10211015Y-14376293D01*
X10211015Y-14376293D02*
X10211015Y-14328674D01*
X10211015Y-14328674D02*
X10220539Y-14290579D01*
X10220539Y-14290579D02*
X10230063Y-14271531D01*
X10230063Y-14271531D02*
X10239587Y-14262008D01*
X10239587Y-14262008D02*
X10258634Y-14252484D01*
X10411015Y-14433436D02*
X10420539Y-14442960D01*
X10420539Y-14442960D02*
X10411015Y-14452484D01*
X10411015Y-14452484D02*
X10401491Y-14442960D01*
X10401491Y-14442960D02*
X10411015Y-14433436D01*
X10411015Y-14433436D02*
X10411015Y-14452484D01*
X10544348Y-14252484D02*
X10563396Y-14252484D01*
X10563396Y-14252484D02*
X10582444Y-14262008D01*
X10582444Y-14262008D02*
X10591968Y-14271531D01*
X10591968Y-14271531D02*
X10601491Y-14290579D01*
X10601491Y-14290579D02*
X10611015Y-14328674D01*
X10611015Y-14328674D02*
X10611015Y-14376293D01*
X10611015Y-14376293D02*
X10601491Y-14414388D01*
X10601491Y-14414388D02*
X10591968Y-14433436D01*
X10591968Y-14433436D02*
X10582444Y-14442960D01*
X10582444Y-14442960D02*
X10563396Y-14452484D01*
X10563396Y-14452484D02*
X10544348Y-14452484D01*
X10544348Y-14452484D02*
X10525301Y-14442960D01*
X10525301Y-14442960D02*
X10515777Y-14433436D01*
X10515777Y-14433436D02*
X10506253Y-14414388D01*
X10506253Y-14414388D02*
X10496729Y-14376293D01*
X10496729Y-14376293D02*
X10496729Y-14328674D01*
X10496729Y-14328674D02*
X10506253Y-14290579D01*
X10506253Y-14290579D02*
X10515777Y-14271531D01*
X10515777Y-14271531D02*
X10525301Y-14262008D01*
X10525301Y-14262008D02*
X10544348Y-14252484D01*
X10801491Y-14452484D02*
X10687206Y-14452484D01*
X10744348Y-14452484D02*
X10744348Y-14252484D01*
X10744348Y-14252484D02*
X10725301Y-14281055D01*
X10725301Y-14281055D02*
X10706253Y-14300103D01*
X10706253Y-14300103D02*
X10687206Y-14309627D01*
X10896729Y-14452484D02*
X10934825Y-14452484D01*
X10934825Y-14452484D02*
X10953872Y-14442960D01*
X10953872Y-14442960D02*
X10963396Y-14433436D01*
X10963396Y-14433436D02*
X10982444Y-14404865D01*
X10982444Y-14404865D02*
X10991968Y-14366769D01*
X10991968Y-14366769D02*
X10991968Y-14290579D01*
X10991968Y-14290579D02*
X10982444Y-14271531D01*
X10982444Y-14271531D02*
X10972920Y-14262008D01*
X10972920Y-14262008D02*
X10953872Y-14252484D01*
X10953872Y-14252484D02*
X10915777Y-14252484D01*
X10915777Y-14252484D02*
X10896729Y-14262008D01*
X10896729Y-14262008D02*
X10887206Y-14271531D01*
X10887206Y-14271531D02*
X10877682Y-14290579D01*
X10877682Y-14290579D02*
X10877682Y-14338198D01*
X10877682Y-14338198D02*
X10887206Y-14357246D01*
X10887206Y-14357246D02*
X10896729Y-14366769D01*
X10896729Y-14366769D02*
X10915777Y-14376293D01*
X10915777Y-14376293D02*
X10953872Y-14376293D01*
X10953872Y-14376293D02*
X10972920Y-14366769D01*
X10972920Y-14366769D02*
X10982444Y-14357246D01*
X10982444Y-14357246D02*
X10991968Y-14338198D01*
X11058634Y-14252484D02*
X11191967Y-14252484D01*
X11191967Y-14252484D02*
X11106253Y-14452484D01*
X11258634Y-14252484D02*
X11258634Y-14290579D01*
X11334825Y-14252484D02*
X11334825Y-14290579D01*
X11630063Y-14528674D02*
X11620539Y-14519150D01*
X11620539Y-14519150D02*
X11601491Y-14490579D01*
X11601491Y-14490579D02*
X11591968Y-14471531D01*
X11591968Y-14471531D02*
X11582444Y-14442960D01*
X11582444Y-14442960D02*
X11572920Y-14395341D01*
X11572920Y-14395341D02*
X11572920Y-14357246D01*
X11572920Y-14357246D02*
X11582444Y-14309627D01*
X11582444Y-14309627D02*
X11591968Y-14281055D01*
X11591968Y-14281055D02*
X11601491Y-14262008D01*
X11601491Y-14262008D02*
X11620539Y-14233436D01*
X11620539Y-14233436D02*
X11630063Y-14223912D01*
X11811015Y-14452484D02*
X11696729Y-14452484D01*
X11753872Y-14452484D02*
X11753872Y-14252484D01*
X11753872Y-14252484D02*
X11734825Y-14281055D01*
X11734825Y-14281055D02*
X11715777Y-14300103D01*
X11715777Y-14300103D02*
X11696729Y-14309627D01*
X12049110Y-14452484D02*
X12049110Y-14252484D01*
X12134825Y-14452484D02*
X12134825Y-14347722D01*
X12134825Y-14347722D02*
X12125301Y-14328674D01*
X12125301Y-14328674D02*
X12106253Y-14319150D01*
X12106253Y-14319150D02*
X12077682Y-14319150D01*
X12077682Y-14319150D02*
X12058634Y-14328674D01*
X12058634Y-14328674D02*
X12049110Y-14338198D01*
X12258634Y-14452484D02*
X12239587Y-14442960D01*
X12239587Y-14442960D02*
X12230063Y-14433436D01*
X12230063Y-14433436D02*
X12220539Y-14414388D01*
X12220539Y-14414388D02*
X12220539Y-14357246D01*
X12220539Y-14357246D02*
X12230063Y-14338198D01*
X12230063Y-14338198D02*
X12239587Y-14328674D01*
X12239587Y-14328674D02*
X12258634Y-14319150D01*
X12258634Y-14319150D02*
X12287206Y-14319150D01*
X12287206Y-14319150D02*
X12306253Y-14328674D01*
X12306253Y-14328674D02*
X12315777Y-14338198D01*
X12315777Y-14338198D02*
X12325301Y-14357246D01*
X12325301Y-14357246D02*
X12325301Y-14414388D01*
X12325301Y-14414388D02*
X12315777Y-14433436D01*
X12315777Y-14433436D02*
X12306253Y-14442960D01*
X12306253Y-14442960D02*
X12287206Y-14452484D01*
X12287206Y-14452484D02*
X12258634Y-14452484D01*
X12439587Y-14452484D02*
X12420539Y-14442960D01*
X12420539Y-14442960D02*
X12411015Y-14423912D01*
X12411015Y-14423912D02*
X12411015Y-14252484D01*
X12591968Y-14442960D02*
X12572920Y-14452484D01*
X12572920Y-14452484D02*
X12534825Y-14452484D01*
X12534825Y-14452484D02*
X12515777Y-14442960D01*
X12515777Y-14442960D02*
X12506253Y-14423912D01*
X12506253Y-14423912D02*
X12506253Y-14347722D01*
X12506253Y-14347722D02*
X12515777Y-14328674D01*
X12515777Y-14328674D02*
X12534825Y-14319150D01*
X12534825Y-14319150D02*
X12572920Y-14319150D01*
X12572920Y-14319150D02*
X12591968Y-14328674D01*
X12591968Y-14328674D02*
X12601491Y-14347722D01*
X12601491Y-14347722D02*
X12601491Y-14366769D01*
X12601491Y-14366769D02*
X12506253Y-14385817D01*
X12668158Y-14528674D02*
X12677682Y-14519150D01*
X12677682Y-14519150D02*
X12696730Y-14490579D01*
X12696730Y-14490579D02*
X12706253Y-14471531D01*
X12706253Y-14471531D02*
X12715777Y-14442960D01*
X12715777Y-14442960D02*
X12725301Y-14395341D01*
X12725301Y-14395341D02*
X12725301Y-14357246D01*
X12725301Y-14357246D02*
X12715777Y-14309627D01*
X12715777Y-14309627D02*
X12706253Y-14281055D01*
X12706253Y-14281055D02*
X12696730Y-14262008D01*
X12696730Y-14262008D02*
X12677682Y-14233436D01*
X12677682Y-14233436D02*
X12668158Y-14223912D01*
D10*
X8055000Y-14625000D02*
G75*
G03*
X8055000Y-14625000I-50000J0D01*
G01*
D11*
X8420539Y-14716484D02*
X8306253Y-14716484D01*
X8363396Y-14716484D02*
X8363396Y-14516484D01*
X8363396Y-14516484D02*
X8344348Y-14545055D01*
X8344348Y-14545055D02*
X8325301Y-14564103D01*
X8325301Y-14564103D02*
X8306253Y-14573627D01*
X8506253Y-14697436D02*
X8515777Y-14706960D01*
X8515777Y-14706960D02*
X8506253Y-14716484D01*
X8506253Y-14716484D02*
X8496729Y-14706960D01*
X8496729Y-14706960D02*
X8506253Y-14697436D01*
X8506253Y-14697436D02*
X8506253Y-14716484D01*
X8639586Y-14516484D02*
X8658634Y-14516484D01*
X8658634Y-14516484D02*
X8677682Y-14526008D01*
X8677682Y-14526008D02*
X8687205Y-14535531D01*
X8687205Y-14535531D02*
X8696729Y-14554579D01*
X8696729Y-14554579D02*
X8706253Y-14592674D01*
X8706253Y-14592674D02*
X8706253Y-14640293D01*
X8706253Y-14640293D02*
X8696729Y-14678388D01*
X8696729Y-14678388D02*
X8687205Y-14697436D01*
X8687205Y-14697436D02*
X8677682Y-14706960D01*
X8677682Y-14706960D02*
X8658634Y-14716484D01*
X8658634Y-14716484D02*
X8639586Y-14716484D01*
X8639586Y-14716484D02*
X8620539Y-14706960D01*
X8620539Y-14706960D02*
X8611015Y-14697436D01*
X8611015Y-14697436D02*
X8601491Y-14678388D01*
X8601491Y-14678388D02*
X8591967Y-14640293D01*
X8591967Y-14640293D02*
X8591967Y-14592674D01*
X8591967Y-14592674D02*
X8601491Y-14554579D01*
X8601491Y-14554579D02*
X8611015Y-14535531D01*
X8611015Y-14535531D02*
X8620539Y-14526008D01*
X8620539Y-14526008D02*
X8639586Y-14516484D01*
X8830063Y-14516484D02*
X8849110Y-14516484D01*
X8849110Y-14516484D02*
X8868158Y-14526008D01*
X8868158Y-14526008D02*
X8877682Y-14535531D01*
X8877682Y-14535531D02*
X8887205Y-14554579D01*
X8887205Y-14554579D02*
X8896729Y-14592674D01*
X8896729Y-14592674D02*
X8896729Y-14640293D01*
X8896729Y-14640293D02*
X8887205Y-14678388D01*
X8887205Y-14678388D02*
X8877682Y-14697436D01*
X8877682Y-14697436D02*
X8868158Y-14706960D01*
X8868158Y-14706960D02*
X8849110Y-14716484D01*
X8849110Y-14716484D02*
X8830063Y-14716484D01*
X8830063Y-14716484D02*
X8811015Y-14706960D01*
X8811015Y-14706960D02*
X8801491Y-14697436D01*
X8801491Y-14697436D02*
X8791967Y-14678388D01*
X8791967Y-14678388D02*
X8782444Y-14640293D01*
X8782444Y-14640293D02*
X8782444Y-14592674D01*
X8782444Y-14592674D02*
X8791967Y-14554579D01*
X8791967Y-14554579D02*
X8801491Y-14535531D01*
X8801491Y-14535531D02*
X8811015Y-14526008D01*
X8811015Y-14526008D02*
X8830063Y-14516484D01*
X9020539Y-14516484D02*
X9039586Y-14516484D01*
X9039586Y-14516484D02*
X9058634Y-14526008D01*
X9058634Y-14526008D02*
X9068158Y-14535531D01*
X9068158Y-14535531D02*
X9077682Y-14554579D01*
X9077682Y-14554579D02*
X9087205Y-14592674D01*
X9087205Y-14592674D02*
X9087205Y-14640293D01*
X9087205Y-14640293D02*
X9077682Y-14678388D01*
X9077682Y-14678388D02*
X9068158Y-14697436D01*
X9068158Y-14697436D02*
X9058634Y-14706960D01*
X9058634Y-14706960D02*
X9039586Y-14716484D01*
X9039586Y-14716484D02*
X9020539Y-14716484D01*
X9020539Y-14716484D02*
X9001491Y-14706960D01*
X9001491Y-14706960D02*
X8991967Y-14697436D01*
X8991967Y-14697436D02*
X8982444Y-14678388D01*
X8982444Y-14678388D02*
X8972920Y-14640293D01*
X8972920Y-14640293D02*
X8972920Y-14592674D01*
X8972920Y-14592674D02*
X8982444Y-14554579D01*
X8982444Y-14554579D02*
X8991967Y-14535531D01*
X8991967Y-14535531D02*
X9001491Y-14526008D01*
X9001491Y-14526008D02*
X9020539Y-14516484D01*
X9172920Y-14716484D02*
X9172920Y-14583150D01*
X9172920Y-14602198D02*
X9182444Y-14592674D01*
X9182444Y-14592674D02*
X9201491Y-14583150D01*
X9201491Y-14583150D02*
X9230063Y-14583150D01*
X9230063Y-14583150D02*
X9249110Y-14592674D01*
X9249110Y-14592674D02*
X9258634Y-14611722D01*
X9258634Y-14611722D02*
X9258634Y-14716484D01*
X9258634Y-14611722D02*
X9268158Y-14592674D01*
X9268158Y-14592674D02*
X9287205Y-14583150D01*
X9287205Y-14583150D02*
X9315777Y-14583150D01*
X9315777Y-14583150D02*
X9334825Y-14592674D01*
X9334825Y-14592674D02*
X9344348Y-14611722D01*
X9344348Y-14611722D02*
X9344348Y-14716484D01*
X9439586Y-14716484D02*
X9439586Y-14583150D01*
X9439586Y-14602198D02*
X9449110Y-14592674D01*
X9449110Y-14592674D02*
X9468158Y-14583150D01*
X9468158Y-14583150D02*
X9496729Y-14583150D01*
X9496729Y-14583150D02*
X9515777Y-14592674D01*
X9515777Y-14592674D02*
X9525301Y-14611722D01*
X9525301Y-14611722D02*
X9525301Y-14716484D01*
X9525301Y-14611722D02*
X9534825Y-14592674D01*
X9534825Y-14592674D02*
X9553872Y-14583150D01*
X9553872Y-14583150D02*
X9582444Y-14583150D01*
X9582444Y-14583150D02*
X9601491Y-14592674D01*
X9601491Y-14592674D02*
X9611015Y-14611722D01*
X9611015Y-14611722D02*
X9611015Y-14716484D01*
X10001491Y-14506960D02*
X9830063Y-14764103D01*
X10258634Y-14516484D02*
X10277682Y-14516484D01*
X10277682Y-14516484D02*
X10296729Y-14526008D01*
X10296729Y-14526008D02*
X10306253Y-14535531D01*
X10306253Y-14535531D02*
X10315777Y-14554579D01*
X10315777Y-14554579D02*
X10325301Y-14592674D01*
X10325301Y-14592674D02*
X10325301Y-14640293D01*
X10325301Y-14640293D02*
X10315777Y-14678388D01*
X10315777Y-14678388D02*
X10306253Y-14697436D01*
X10306253Y-14697436D02*
X10296729Y-14706960D01*
X10296729Y-14706960D02*
X10277682Y-14716484D01*
X10277682Y-14716484D02*
X10258634Y-14716484D01*
X10258634Y-14716484D02*
X10239587Y-14706960D01*
X10239587Y-14706960D02*
X10230063Y-14697436D01*
X10230063Y-14697436D02*
X10220539Y-14678388D01*
X10220539Y-14678388D02*
X10211015Y-14640293D01*
X10211015Y-14640293D02*
X10211015Y-14592674D01*
X10211015Y-14592674D02*
X10220539Y-14554579D01*
X10220539Y-14554579D02*
X10230063Y-14535531D01*
X10230063Y-14535531D02*
X10239587Y-14526008D01*
X10239587Y-14526008D02*
X10258634Y-14516484D01*
X10411015Y-14697436D02*
X10420539Y-14706960D01*
X10420539Y-14706960D02*
X10411015Y-14716484D01*
X10411015Y-14716484D02*
X10401491Y-14706960D01*
X10401491Y-14706960D02*
X10411015Y-14697436D01*
X10411015Y-14697436D02*
X10411015Y-14716484D01*
X10544348Y-14516484D02*
X10563396Y-14516484D01*
X10563396Y-14516484D02*
X10582444Y-14526008D01*
X10582444Y-14526008D02*
X10591968Y-14535531D01*
X10591968Y-14535531D02*
X10601491Y-14554579D01*
X10601491Y-14554579D02*
X10611015Y-14592674D01*
X10611015Y-14592674D02*
X10611015Y-14640293D01*
X10611015Y-14640293D02*
X10601491Y-14678388D01*
X10601491Y-14678388D02*
X10591968Y-14697436D01*
X10591968Y-14697436D02*
X10582444Y-14706960D01*
X10582444Y-14706960D02*
X10563396Y-14716484D01*
X10563396Y-14716484D02*
X10544348Y-14716484D01*
X10544348Y-14716484D02*
X10525301Y-14706960D01*
X10525301Y-14706960D02*
X10515777Y-14697436D01*
X10515777Y-14697436D02*
X10506253Y-14678388D01*
X10506253Y-14678388D02*
X10496729Y-14640293D01*
X10496729Y-14640293D02*
X10496729Y-14592674D01*
X10496729Y-14592674D02*
X10506253Y-14554579D01*
X10506253Y-14554579D02*
X10515777Y-14535531D01*
X10515777Y-14535531D02*
X10525301Y-14526008D01*
X10525301Y-14526008D02*
X10544348Y-14516484D01*
X10677682Y-14516484D02*
X10801491Y-14516484D01*
X10801491Y-14516484D02*
X10734825Y-14592674D01*
X10734825Y-14592674D02*
X10763396Y-14592674D01*
X10763396Y-14592674D02*
X10782444Y-14602198D01*
X10782444Y-14602198D02*
X10791968Y-14611722D01*
X10791968Y-14611722D02*
X10801491Y-14630769D01*
X10801491Y-14630769D02*
X10801491Y-14678388D01*
X10801491Y-14678388D02*
X10791968Y-14697436D01*
X10791968Y-14697436D02*
X10782444Y-14706960D01*
X10782444Y-14706960D02*
X10763396Y-14716484D01*
X10763396Y-14716484D02*
X10706253Y-14716484D01*
X10706253Y-14716484D02*
X10687206Y-14706960D01*
X10687206Y-14706960D02*
X10677682Y-14697436D01*
X10896729Y-14716484D02*
X10934825Y-14716484D01*
X10934825Y-14716484D02*
X10953872Y-14706960D01*
X10953872Y-14706960D02*
X10963396Y-14697436D01*
X10963396Y-14697436D02*
X10982444Y-14668865D01*
X10982444Y-14668865D02*
X10991968Y-14630769D01*
X10991968Y-14630769D02*
X10991968Y-14554579D01*
X10991968Y-14554579D02*
X10982444Y-14535531D01*
X10982444Y-14535531D02*
X10972920Y-14526008D01*
X10972920Y-14526008D02*
X10953872Y-14516484D01*
X10953872Y-14516484D02*
X10915777Y-14516484D01*
X10915777Y-14516484D02*
X10896729Y-14526008D01*
X10896729Y-14526008D02*
X10887206Y-14535531D01*
X10887206Y-14535531D02*
X10877682Y-14554579D01*
X10877682Y-14554579D02*
X10877682Y-14602198D01*
X10877682Y-14602198D02*
X10887206Y-14621246D01*
X10887206Y-14621246D02*
X10896729Y-14630769D01*
X10896729Y-14630769D02*
X10915777Y-14640293D01*
X10915777Y-14640293D02*
X10953872Y-14640293D01*
X10953872Y-14640293D02*
X10972920Y-14630769D01*
X10972920Y-14630769D02*
X10982444Y-14621246D01*
X10982444Y-14621246D02*
X10991968Y-14602198D01*
X11163396Y-14583150D02*
X11163396Y-14716484D01*
X11115777Y-14506960D02*
X11068158Y-14649817D01*
X11068158Y-14649817D02*
X11191967Y-14649817D01*
X11258634Y-14516484D02*
X11258634Y-14554579D01*
X11334825Y-14516484D02*
X11334825Y-14554579D01*
X11630063Y-14792674D02*
X11620539Y-14783150D01*
X11620539Y-14783150D02*
X11601491Y-14754579D01*
X11601491Y-14754579D02*
X11591968Y-14735531D01*
X11591968Y-14735531D02*
X11582444Y-14706960D01*
X11582444Y-14706960D02*
X11572920Y-14659341D01*
X11572920Y-14659341D02*
X11572920Y-14621246D01*
X11572920Y-14621246D02*
X11582444Y-14573627D01*
X11582444Y-14573627D02*
X11591968Y-14545055D01*
X11591968Y-14545055D02*
X11601491Y-14526008D01*
X11601491Y-14526008D02*
X11620539Y-14497436D01*
X11620539Y-14497436D02*
X11630063Y-14487912D01*
X11696729Y-14535531D02*
X11706253Y-14526008D01*
X11706253Y-14526008D02*
X11725301Y-14516484D01*
X11725301Y-14516484D02*
X11772920Y-14516484D01*
X11772920Y-14516484D02*
X11791968Y-14526008D01*
X11791968Y-14526008D02*
X11801491Y-14535531D01*
X11801491Y-14535531D02*
X11811015Y-14554579D01*
X11811015Y-14554579D02*
X11811015Y-14573627D01*
X11811015Y-14573627D02*
X11801491Y-14602198D01*
X11801491Y-14602198D02*
X11687206Y-14716484D01*
X11687206Y-14716484D02*
X11811015Y-14716484D01*
X11887206Y-14535531D02*
X11896729Y-14526008D01*
X11896729Y-14526008D02*
X11915777Y-14516484D01*
X11915777Y-14516484D02*
X11963396Y-14516484D01*
X11963396Y-14516484D02*
X11982444Y-14526008D01*
X11982444Y-14526008D02*
X11991968Y-14535531D01*
X11991968Y-14535531D02*
X12001491Y-14554579D01*
X12001491Y-14554579D02*
X12001491Y-14573627D01*
X12001491Y-14573627D02*
X11991968Y-14602198D01*
X11991968Y-14602198D02*
X11877682Y-14716484D01*
X11877682Y-14716484D02*
X12001491Y-14716484D01*
X12239587Y-14716484D02*
X12239587Y-14516484D01*
X12325301Y-14716484D02*
X12325301Y-14611722D01*
X12325301Y-14611722D02*
X12315777Y-14592674D01*
X12315777Y-14592674D02*
X12296730Y-14583150D01*
X12296730Y-14583150D02*
X12268158Y-14583150D01*
X12268158Y-14583150D02*
X12249110Y-14592674D01*
X12249110Y-14592674D02*
X12239587Y-14602198D01*
X12449110Y-14716484D02*
X12430063Y-14706960D01*
X12430063Y-14706960D02*
X12420539Y-14697436D01*
X12420539Y-14697436D02*
X12411015Y-14678388D01*
X12411015Y-14678388D02*
X12411015Y-14621246D01*
X12411015Y-14621246D02*
X12420539Y-14602198D01*
X12420539Y-14602198D02*
X12430063Y-14592674D01*
X12430063Y-14592674D02*
X12449110Y-14583150D01*
X12449110Y-14583150D02*
X12477682Y-14583150D01*
X12477682Y-14583150D02*
X12496730Y-14592674D01*
X12496730Y-14592674D02*
X12506253Y-14602198D01*
X12506253Y-14602198D02*
X12515777Y-14621246D01*
X12515777Y-14621246D02*
X12515777Y-14678388D01*
X12515777Y-14678388D02*
X12506253Y-14697436D01*
X12506253Y-14697436D02*
X12496730Y-14706960D01*
X12496730Y-14706960D02*
X12477682Y-14716484D01*
X12477682Y-14716484D02*
X12449110Y-14716484D01*
X12630063Y-14716484D02*
X12611015Y-14706960D01*
X12611015Y-14706960D02*
X12601491Y-14687912D01*
X12601491Y-14687912D02*
X12601491Y-14516484D01*
X12782444Y-14706960D02*
X12763396Y-14716484D01*
X12763396Y-14716484D02*
X12725301Y-14716484D01*
X12725301Y-14716484D02*
X12706253Y-14706960D01*
X12706253Y-14706960D02*
X12696730Y-14687912D01*
X12696730Y-14687912D02*
X12696730Y-14611722D01*
X12696730Y-14611722D02*
X12706253Y-14592674D01*
X12706253Y-14592674D02*
X12725301Y-14583150D01*
X12725301Y-14583150D02*
X12763396Y-14583150D01*
X12763396Y-14583150D02*
X12782444Y-14592674D01*
X12782444Y-14592674D02*
X12791968Y-14611722D01*
X12791968Y-14611722D02*
X12791968Y-14630769D01*
X12791968Y-14630769D02*
X12696730Y-14649817D01*
X12868158Y-14706960D02*
X12887206Y-14716484D01*
X12887206Y-14716484D02*
X12925301Y-14716484D01*
X12925301Y-14716484D02*
X12944349Y-14706960D01*
X12944349Y-14706960D02*
X12953872Y-14687912D01*
X12953872Y-14687912D02*
X12953872Y-14678388D01*
X12953872Y-14678388D02*
X12944349Y-14659341D01*
X12944349Y-14659341D02*
X12925301Y-14649817D01*
X12925301Y-14649817D02*
X12896730Y-14649817D01*
X12896730Y-14649817D02*
X12877682Y-14640293D01*
X12877682Y-14640293D02*
X12868158Y-14621246D01*
X12868158Y-14621246D02*
X12868158Y-14611722D01*
X12868158Y-14611722D02*
X12877682Y-14592674D01*
X12877682Y-14592674D02*
X12896730Y-14583150D01*
X12896730Y-14583150D02*
X12925301Y-14583150D01*
X12925301Y-14583150D02*
X12944349Y-14592674D01*
X13020539Y-14792674D02*
X13030063Y-14783150D01*
X13030063Y-14783150D02*
X13049111Y-14754579D01*
X13049111Y-14754579D02*
X13058634Y-14735531D01*
X13058634Y-14735531D02*
X13068158Y-14706960D01*
X13068158Y-14706960D02*
X13077682Y-14659341D01*
X13077682Y-14659341D02*
X13077682Y-14621246D01*
X13077682Y-14621246D02*
X13068158Y-14573627D01*
X13068158Y-14573627D02*
X13058634Y-14545055D01*
X13058634Y-14545055D02*
X13049111Y-14526008D01*
X13049111Y-14526008D02*
X13030063Y-14497436D01*
X13030063Y-14497436D02*
X13020539Y-14487912D01*
D13*
X7999500Y-14833500D02*
X7999500Y-14944500D01*
X7944000Y-14889000D02*
X8055000Y-14889000D01*
D11*
X8420539Y-14980484D02*
X8306253Y-14980484D01*
X8363396Y-14980484D02*
X8363396Y-14780484D01*
X8363396Y-14780484D02*
X8344348Y-14809055D01*
X8344348Y-14809055D02*
X8325301Y-14828103D01*
X8325301Y-14828103D02*
X8306253Y-14837627D01*
X8506253Y-14961436D02*
X8515777Y-14970960D01*
X8515777Y-14970960D02*
X8506253Y-14980484D01*
X8506253Y-14980484D02*
X8496729Y-14970960D01*
X8496729Y-14970960D02*
X8506253Y-14961436D01*
X8506253Y-14961436D02*
X8506253Y-14980484D01*
X8706253Y-14980484D02*
X8591967Y-14980484D01*
X8649110Y-14980484D02*
X8649110Y-14780484D01*
X8649110Y-14780484D02*
X8630063Y-14809055D01*
X8630063Y-14809055D02*
X8611015Y-14828103D01*
X8611015Y-14828103D02*
X8591967Y-14837627D01*
X8896729Y-14980484D02*
X8782444Y-14980484D01*
X8839586Y-14980484D02*
X8839586Y-14780484D01*
X8839586Y-14780484D02*
X8820539Y-14809055D01*
X8820539Y-14809055D02*
X8801491Y-14828103D01*
X8801491Y-14828103D02*
X8782444Y-14837627D01*
X9020539Y-14780484D02*
X9039586Y-14780484D01*
X9039586Y-14780484D02*
X9058634Y-14790008D01*
X9058634Y-14790008D02*
X9068158Y-14799531D01*
X9068158Y-14799531D02*
X9077682Y-14818579D01*
X9077682Y-14818579D02*
X9087205Y-14856674D01*
X9087205Y-14856674D02*
X9087205Y-14904293D01*
X9087205Y-14904293D02*
X9077682Y-14942388D01*
X9077682Y-14942388D02*
X9068158Y-14961436D01*
X9068158Y-14961436D02*
X9058634Y-14970960D01*
X9058634Y-14970960D02*
X9039586Y-14980484D01*
X9039586Y-14980484D02*
X9020539Y-14980484D01*
X9020539Y-14980484D02*
X9001491Y-14970960D01*
X9001491Y-14970960D02*
X8991967Y-14961436D01*
X8991967Y-14961436D02*
X8982444Y-14942388D01*
X8982444Y-14942388D02*
X8972920Y-14904293D01*
X8972920Y-14904293D02*
X8972920Y-14856674D01*
X8972920Y-14856674D02*
X8982444Y-14818579D01*
X8982444Y-14818579D02*
X8991967Y-14799531D01*
X8991967Y-14799531D02*
X9001491Y-14790008D01*
X9001491Y-14790008D02*
X9020539Y-14780484D01*
X9172920Y-14980484D02*
X9172920Y-14847150D01*
X9172920Y-14866198D02*
X9182444Y-14856674D01*
X9182444Y-14856674D02*
X9201491Y-14847150D01*
X9201491Y-14847150D02*
X9230063Y-14847150D01*
X9230063Y-14847150D02*
X9249110Y-14856674D01*
X9249110Y-14856674D02*
X9258634Y-14875722D01*
X9258634Y-14875722D02*
X9258634Y-14980484D01*
X9258634Y-14875722D02*
X9268158Y-14856674D01*
X9268158Y-14856674D02*
X9287205Y-14847150D01*
X9287205Y-14847150D02*
X9315777Y-14847150D01*
X9315777Y-14847150D02*
X9334825Y-14856674D01*
X9334825Y-14856674D02*
X9344348Y-14875722D01*
X9344348Y-14875722D02*
X9344348Y-14980484D01*
X9439586Y-14980484D02*
X9439586Y-14847150D01*
X9439586Y-14866198D02*
X9449110Y-14856674D01*
X9449110Y-14856674D02*
X9468158Y-14847150D01*
X9468158Y-14847150D02*
X9496729Y-14847150D01*
X9496729Y-14847150D02*
X9515777Y-14856674D01*
X9515777Y-14856674D02*
X9525301Y-14875722D01*
X9525301Y-14875722D02*
X9525301Y-14980484D01*
X9525301Y-14875722D02*
X9534825Y-14856674D01*
X9534825Y-14856674D02*
X9553872Y-14847150D01*
X9553872Y-14847150D02*
X9582444Y-14847150D01*
X9582444Y-14847150D02*
X9601491Y-14856674D01*
X9601491Y-14856674D02*
X9611015Y-14875722D01*
X9611015Y-14875722D02*
X9611015Y-14980484D01*
X10001491Y-14770960D02*
X9830063Y-15028103D01*
X10258634Y-14780484D02*
X10277682Y-14780484D01*
X10277682Y-14780484D02*
X10296729Y-14790008D01*
X10296729Y-14790008D02*
X10306253Y-14799531D01*
X10306253Y-14799531D02*
X10315777Y-14818579D01*
X10315777Y-14818579D02*
X10325301Y-14856674D01*
X10325301Y-14856674D02*
X10325301Y-14904293D01*
X10325301Y-14904293D02*
X10315777Y-14942388D01*
X10315777Y-14942388D02*
X10306253Y-14961436D01*
X10306253Y-14961436D02*
X10296729Y-14970960D01*
X10296729Y-14970960D02*
X10277682Y-14980484D01*
X10277682Y-14980484D02*
X10258634Y-14980484D01*
X10258634Y-14980484D02*
X10239587Y-14970960D01*
X10239587Y-14970960D02*
X10230063Y-14961436D01*
X10230063Y-14961436D02*
X10220539Y-14942388D01*
X10220539Y-14942388D02*
X10211015Y-14904293D01*
X10211015Y-14904293D02*
X10211015Y-14856674D01*
X10211015Y-14856674D02*
X10220539Y-14818579D01*
X10220539Y-14818579D02*
X10230063Y-14799531D01*
X10230063Y-14799531D02*
X10239587Y-14790008D01*
X10239587Y-14790008D02*
X10258634Y-14780484D01*
X10411015Y-14961436D02*
X10420539Y-14970960D01*
X10420539Y-14970960D02*
X10411015Y-14980484D01*
X10411015Y-14980484D02*
X10401491Y-14970960D01*
X10401491Y-14970960D02*
X10411015Y-14961436D01*
X10411015Y-14961436D02*
X10411015Y-14980484D01*
X10544348Y-14780484D02*
X10563396Y-14780484D01*
X10563396Y-14780484D02*
X10582444Y-14790008D01*
X10582444Y-14790008D02*
X10591968Y-14799531D01*
X10591968Y-14799531D02*
X10601491Y-14818579D01*
X10601491Y-14818579D02*
X10611015Y-14856674D01*
X10611015Y-14856674D02*
X10611015Y-14904293D01*
X10611015Y-14904293D02*
X10601491Y-14942388D01*
X10601491Y-14942388D02*
X10591968Y-14961436D01*
X10591968Y-14961436D02*
X10582444Y-14970960D01*
X10582444Y-14970960D02*
X10563396Y-14980484D01*
X10563396Y-14980484D02*
X10544348Y-14980484D01*
X10544348Y-14980484D02*
X10525301Y-14970960D01*
X10525301Y-14970960D02*
X10515777Y-14961436D01*
X10515777Y-14961436D02*
X10506253Y-14942388D01*
X10506253Y-14942388D02*
X10496729Y-14904293D01*
X10496729Y-14904293D02*
X10496729Y-14856674D01*
X10496729Y-14856674D02*
X10506253Y-14818579D01*
X10506253Y-14818579D02*
X10515777Y-14799531D01*
X10515777Y-14799531D02*
X10525301Y-14790008D01*
X10525301Y-14790008D02*
X10544348Y-14780484D01*
X10782444Y-14847150D02*
X10782444Y-14980484D01*
X10734825Y-14770960D02*
X10687206Y-14913817D01*
X10687206Y-14913817D02*
X10811015Y-14913817D01*
X10868158Y-14780484D02*
X10991968Y-14780484D01*
X10991968Y-14780484D02*
X10925301Y-14856674D01*
X10925301Y-14856674D02*
X10953872Y-14856674D01*
X10953872Y-14856674D02*
X10972920Y-14866198D01*
X10972920Y-14866198D02*
X10982444Y-14875722D01*
X10982444Y-14875722D02*
X10991968Y-14894769D01*
X10991968Y-14894769D02*
X10991968Y-14942388D01*
X10991968Y-14942388D02*
X10982444Y-14961436D01*
X10982444Y-14961436D02*
X10972920Y-14970960D01*
X10972920Y-14970960D02*
X10953872Y-14980484D01*
X10953872Y-14980484D02*
X10896729Y-14980484D01*
X10896729Y-14980484D02*
X10877682Y-14970960D01*
X10877682Y-14970960D02*
X10868158Y-14961436D01*
X11058634Y-14780484D02*
X11191967Y-14780484D01*
X11191967Y-14780484D02*
X11106253Y-14980484D01*
X11258634Y-14780484D02*
X11258634Y-14818579D01*
X11334825Y-14780484D02*
X11334825Y-14818579D01*
X11630063Y-15056674D02*
X11620539Y-15047150D01*
X11620539Y-15047150D02*
X11601491Y-15018579D01*
X11601491Y-15018579D02*
X11591968Y-14999531D01*
X11591968Y-14999531D02*
X11582444Y-14970960D01*
X11582444Y-14970960D02*
X11572920Y-14923341D01*
X11572920Y-14923341D02*
X11572920Y-14885246D01*
X11572920Y-14885246D02*
X11582444Y-14837627D01*
X11582444Y-14837627D02*
X11591968Y-14809055D01*
X11591968Y-14809055D02*
X11601491Y-14790008D01*
X11601491Y-14790008D02*
X11620539Y-14761436D01*
X11620539Y-14761436D02*
X11630063Y-14751912D01*
X11696729Y-14799531D02*
X11706253Y-14790008D01*
X11706253Y-14790008D02*
X11725301Y-14780484D01*
X11725301Y-14780484D02*
X11772920Y-14780484D01*
X11772920Y-14780484D02*
X11791968Y-14790008D01*
X11791968Y-14790008D02*
X11801491Y-14799531D01*
X11801491Y-14799531D02*
X11811015Y-14818579D01*
X11811015Y-14818579D02*
X11811015Y-14837627D01*
X11811015Y-14837627D02*
X11801491Y-14866198D01*
X11801491Y-14866198D02*
X11687206Y-14980484D01*
X11687206Y-14980484D02*
X11811015Y-14980484D01*
X11934825Y-14780484D02*
X11953872Y-14780484D01*
X11953872Y-14780484D02*
X11972920Y-14790008D01*
X11972920Y-14790008D02*
X11982444Y-14799531D01*
X11982444Y-14799531D02*
X11991968Y-14818579D01*
X11991968Y-14818579D02*
X12001491Y-14856674D01*
X12001491Y-14856674D02*
X12001491Y-14904293D01*
X12001491Y-14904293D02*
X11991968Y-14942388D01*
X11991968Y-14942388D02*
X11982444Y-14961436D01*
X11982444Y-14961436D02*
X11972920Y-14970960D01*
X11972920Y-14970960D02*
X11953872Y-14980484D01*
X11953872Y-14980484D02*
X11934825Y-14980484D01*
X11934825Y-14980484D02*
X11915777Y-14970960D01*
X11915777Y-14970960D02*
X11906253Y-14961436D01*
X11906253Y-14961436D02*
X11896729Y-14942388D01*
X11896729Y-14942388D02*
X11887206Y-14904293D01*
X11887206Y-14904293D02*
X11887206Y-14856674D01*
X11887206Y-14856674D02*
X11896729Y-14818579D01*
X11896729Y-14818579D02*
X11906253Y-14799531D01*
X11906253Y-14799531D02*
X11915777Y-14790008D01*
X11915777Y-14790008D02*
X11934825Y-14780484D01*
X12239587Y-14980484D02*
X12239587Y-14780484D01*
X12325301Y-14980484D02*
X12325301Y-14875722D01*
X12325301Y-14875722D02*
X12315777Y-14856674D01*
X12315777Y-14856674D02*
X12296730Y-14847150D01*
X12296730Y-14847150D02*
X12268158Y-14847150D01*
X12268158Y-14847150D02*
X12249110Y-14856674D01*
X12249110Y-14856674D02*
X12239587Y-14866198D01*
X12449110Y-14980484D02*
X12430063Y-14970960D01*
X12430063Y-14970960D02*
X12420539Y-14961436D01*
X12420539Y-14961436D02*
X12411015Y-14942388D01*
X12411015Y-14942388D02*
X12411015Y-14885246D01*
X12411015Y-14885246D02*
X12420539Y-14866198D01*
X12420539Y-14866198D02*
X12430063Y-14856674D01*
X12430063Y-14856674D02*
X12449110Y-14847150D01*
X12449110Y-14847150D02*
X12477682Y-14847150D01*
X12477682Y-14847150D02*
X12496730Y-14856674D01*
X12496730Y-14856674D02*
X12506253Y-14866198D01*
X12506253Y-14866198D02*
X12515777Y-14885246D01*
X12515777Y-14885246D02*
X12515777Y-14942388D01*
X12515777Y-14942388D02*
X12506253Y-14961436D01*
X12506253Y-14961436D02*
X12496730Y-14970960D01*
X12496730Y-14970960D02*
X12477682Y-14980484D01*
X12477682Y-14980484D02*
X12449110Y-14980484D01*
X12630063Y-14980484D02*
X12611015Y-14970960D01*
X12611015Y-14970960D02*
X12601491Y-14951912D01*
X12601491Y-14951912D02*
X12601491Y-14780484D01*
X12782444Y-14970960D02*
X12763396Y-14980484D01*
X12763396Y-14980484D02*
X12725301Y-14980484D01*
X12725301Y-14980484D02*
X12706253Y-14970960D01*
X12706253Y-14970960D02*
X12696730Y-14951912D01*
X12696730Y-14951912D02*
X12696730Y-14875722D01*
X12696730Y-14875722D02*
X12706253Y-14856674D01*
X12706253Y-14856674D02*
X12725301Y-14847150D01*
X12725301Y-14847150D02*
X12763396Y-14847150D01*
X12763396Y-14847150D02*
X12782444Y-14856674D01*
X12782444Y-14856674D02*
X12791968Y-14875722D01*
X12791968Y-14875722D02*
X12791968Y-14894769D01*
X12791968Y-14894769D02*
X12696730Y-14913817D01*
X12868158Y-14970960D02*
X12887206Y-14980484D01*
X12887206Y-14980484D02*
X12925301Y-14980484D01*
X12925301Y-14980484D02*
X12944349Y-14970960D01*
X12944349Y-14970960D02*
X12953872Y-14951912D01*
X12953872Y-14951912D02*
X12953872Y-14942388D01*
X12953872Y-14942388D02*
X12944349Y-14923341D01*
X12944349Y-14923341D02*
X12925301Y-14913817D01*
X12925301Y-14913817D02*
X12896730Y-14913817D01*
X12896730Y-14913817D02*
X12877682Y-14904293D01*
X12877682Y-14904293D02*
X12868158Y-14885246D01*
X12868158Y-14885246D02*
X12868158Y-14875722D01*
X12868158Y-14875722D02*
X12877682Y-14856674D01*
X12877682Y-14856674D02*
X12896730Y-14847150D01*
X12896730Y-14847150D02*
X12925301Y-14847150D01*
X12925301Y-14847150D02*
X12944349Y-14856674D01*
X13020539Y-15056674D02*
X13030063Y-15047150D01*
X13030063Y-15047150D02*
X13049111Y-15018579D01*
X13049111Y-15018579D02*
X13058634Y-14999531D01*
X13058634Y-14999531D02*
X13068158Y-14970960D01*
X13068158Y-14970960D02*
X13077682Y-14923341D01*
X13077682Y-14923341D02*
X13077682Y-14885246D01*
X13077682Y-14885246D02*
X13068158Y-14837627D01*
X13068158Y-14837627D02*
X13058634Y-14809055D01*
X13058634Y-14809055D02*
X13049111Y-14790008D01*
X13049111Y-14790008D02*
X13030063Y-14761436D01*
X13030063Y-14761436D02*
X13020539Y-14751912D01*
D14*
X8034498Y-15202498D02*
X8034498Y-15103502D01*
X7935502Y-15103502D01*
X7935502Y-15202498D01*
X8034498Y-15202498D01*
D11*
X8420539Y-15244484D02*
X8306253Y-15244484D01*
X8363396Y-15244484D02*
X8363396Y-15044484D01*
X8363396Y-15044484D02*
X8344348Y-15073055D01*
X8344348Y-15073055D02*
X8325301Y-15092103D01*
X8325301Y-15092103D02*
X8306253Y-15101627D01*
X8506253Y-15225436D02*
X8515777Y-15234960D01*
X8515777Y-15234960D02*
X8506253Y-15244484D01*
X8506253Y-15244484D02*
X8496729Y-15234960D01*
X8496729Y-15234960D02*
X8506253Y-15225436D01*
X8506253Y-15225436D02*
X8506253Y-15244484D01*
X8687205Y-15111150D02*
X8687205Y-15244484D01*
X8639586Y-15034960D02*
X8591967Y-15177817D01*
X8591967Y-15177817D02*
X8715777Y-15177817D01*
X8830063Y-15044484D02*
X8849110Y-15044484D01*
X8849110Y-15044484D02*
X8868158Y-15054008D01*
X8868158Y-15054008D02*
X8877682Y-15063531D01*
X8877682Y-15063531D02*
X8887205Y-15082579D01*
X8887205Y-15082579D02*
X8896729Y-15120674D01*
X8896729Y-15120674D02*
X8896729Y-15168293D01*
X8896729Y-15168293D02*
X8887205Y-15206388D01*
X8887205Y-15206388D02*
X8877682Y-15225436D01*
X8877682Y-15225436D02*
X8868158Y-15234960D01*
X8868158Y-15234960D02*
X8849110Y-15244484D01*
X8849110Y-15244484D02*
X8830063Y-15244484D01*
X8830063Y-15244484D02*
X8811015Y-15234960D01*
X8811015Y-15234960D02*
X8801491Y-15225436D01*
X8801491Y-15225436D02*
X8791967Y-15206388D01*
X8791967Y-15206388D02*
X8782444Y-15168293D01*
X8782444Y-15168293D02*
X8782444Y-15120674D01*
X8782444Y-15120674D02*
X8791967Y-15082579D01*
X8791967Y-15082579D02*
X8801491Y-15063531D01*
X8801491Y-15063531D02*
X8811015Y-15054008D01*
X8811015Y-15054008D02*
X8830063Y-15044484D01*
X9020539Y-15044484D02*
X9039586Y-15044484D01*
X9039586Y-15044484D02*
X9058634Y-15054008D01*
X9058634Y-15054008D02*
X9068158Y-15063531D01*
X9068158Y-15063531D02*
X9077682Y-15082579D01*
X9077682Y-15082579D02*
X9087205Y-15120674D01*
X9087205Y-15120674D02*
X9087205Y-15168293D01*
X9087205Y-15168293D02*
X9077682Y-15206388D01*
X9077682Y-15206388D02*
X9068158Y-15225436D01*
X9068158Y-15225436D02*
X9058634Y-15234960D01*
X9058634Y-15234960D02*
X9039586Y-15244484D01*
X9039586Y-15244484D02*
X9020539Y-15244484D01*
X9020539Y-15244484D02*
X9001491Y-15234960D01*
X9001491Y-15234960D02*
X8991967Y-15225436D01*
X8991967Y-15225436D02*
X8982444Y-15206388D01*
X8982444Y-15206388D02*
X8972920Y-15168293D01*
X8972920Y-15168293D02*
X8972920Y-15120674D01*
X8972920Y-15120674D02*
X8982444Y-15082579D01*
X8982444Y-15082579D02*
X8991967Y-15063531D01*
X8991967Y-15063531D02*
X9001491Y-15054008D01*
X9001491Y-15054008D02*
X9020539Y-15044484D01*
X9172920Y-15244484D02*
X9172920Y-15111150D01*
X9172920Y-15130198D02*
X9182444Y-15120674D01*
X9182444Y-15120674D02*
X9201491Y-15111150D01*
X9201491Y-15111150D02*
X9230063Y-15111150D01*
X9230063Y-15111150D02*
X9249110Y-15120674D01*
X9249110Y-15120674D02*
X9258634Y-15139722D01*
X9258634Y-15139722D02*
X9258634Y-15244484D01*
X9258634Y-15139722D02*
X9268158Y-15120674D01*
X9268158Y-15120674D02*
X9287205Y-15111150D01*
X9287205Y-15111150D02*
X9315777Y-15111150D01*
X9315777Y-15111150D02*
X9334825Y-15120674D01*
X9334825Y-15120674D02*
X9344348Y-15139722D01*
X9344348Y-15139722D02*
X9344348Y-15244484D01*
X9439586Y-15244484D02*
X9439586Y-15111150D01*
X9439586Y-15130198D02*
X9449110Y-15120674D01*
X9449110Y-15120674D02*
X9468158Y-15111150D01*
X9468158Y-15111150D02*
X9496729Y-15111150D01*
X9496729Y-15111150D02*
X9515777Y-15120674D01*
X9515777Y-15120674D02*
X9525301Y-15139722D01*
X9525301Y-15139722D02*
X9525301Y-15244484D01*
X9525301Y-15139722D02*
X9534825Y-15120674D01*
X9534825Y-15120674D02*
X9553872Y-15111150D01*
X9553872Y-15111150D02*
X9582444Y-15111150D01*
X9582444Y-15111150D02*
X9601491Y-15120674D01*
X9601491Y-15120674D02*
X9611015Y-15139722D01*
X9611015Y-15139722D02*
X9611015Y-15244484D01*
X10001491Y-15034960D02*
X9830063Y-15292103D01*
X10258634Y-15044484D02*
X10277682Y-15044484D01*
X10277682Y-15044484D02*
X10296729Y-15054008D01*
X10296729Y-15054008D02*
X10306253Y-15063531D01*
X10306253Y-15063531D02*
X10315777Y-15082579D01*
X10315777Y-15082579D02*
X10325301Y-15120674D01*
X10325301Y-15120674D02*
X10325301Y-15168293D01*
X10325301Y-15168293D02*
X10315777Y-15206388D01*
X10315777Y-15206388D02*
X10306253Y-15225436D01*
X10306253Y-15225436D02*
X10296729Y-15234960D01*
X10296729Y-15234960D02*
X10277682Y-15244484D01*
X10277682Y-15244484D02*
X10258634Y-15244484D01*
X10258634Y-15244484D02*
X10239587Y-15234960D01*
X10239587Y-15234960D02*
X10230063Y-15225436D01*
X10230063Y-15225436D02*
X10220539Y-15206388D01*
X10220539Y-15206388D02*
X10211015Y-15168293D01*
X10211015Y-15168293D02*
X10211015Y-15120674D01*
X10211015Y-15120674D02*
X10220539Y-15082579D01*
X10220539Y-15082579D02*
X10230063Y-15063531D01*
X10230063Y-15063531D02*
X10239587Y-15054008D01*
X10239587Y-15054008D02*
X10258634Y-15044484D01*
X10411015Y-15225436D02*
X10420539Y-15234960D01*
X10420539Y-15234960D02*
X10411015Y-15244484D01*
X10411015Y-15244484D02*
X10401491Y-15234960D01*
X10401491Y-15234960D02*
X10411015Y-15225436D01*
X10411015Y-15225436D02*
X10411015Y-15244484D01*
X10544348Y-15044484D02*
X10563396Y-15044484D01*
X10563396Y-15044484D02*
X10582444Y-15054008D01*
X10582444Y-15054008D02*
X10591968Y-15063531D01*
X10591968Y-15063531D02*
X10601491Y-15082579D01*
X10601491Y-15082579D02*
X10611015Y-15120674D01*
X10611015Y-15120674D02*
X10611015Y-15168293D01*
X10611015Y-15168293D02*
X10601491Y-15206388D01*
X10601491Y-15206388D02*
X10591968Y-15225436D01*
X10591968Y-15225436D02*
X10582444Y-15234960D01*
X10582444Y-15234960D02*
X10563396Y-15244484D01*
X10563396Y-15244484D02*
X10544348Y-15244484D01*
X10544348Y-15244484D02*
X10525301Y-15234960D01*
X10525301Y-15234960D02*
X10515777Y-15225436D01*
X10515777Y-15225436D02*
X10506253Y-15206388D01*
X10506253Y-15206388D02*
X10496729Y-15168293D01*
X10496729Y-15168293D02*
X10496729Y-15120674D01*
X10496729Y-15120674D02*
X10506253Y-15082579D01*
X10506253Y-15082579D02*
X10515777Y-15063531D01*
X10515777Y-15063531D02*
X10525301Y-15054008D01*
X10525301Y-15054008D02*
X10544348Y-15044484D01*
X10791968Y-15044484D02*
X10696729Y-15044484D01*
X10696729Y-15044484D02*
X10687206Y-15139722D01*
X10687206Y-15139722D02*
X10696729Y-15130198D01*
X10696729Y-15130198D02*
X10715777Y-15120674D01*
X10715777Y-15120674D02*
X10763396Y-15120674D01*
X10763396Y-15120674D02*
X10782444Y-15130198D01*
X10782444Y-15130198D02*
X10791968Y-15139722D01*
X10791968Y-15139722D02*
X10801491Y-15158769D01*
X10801491Y-15158769D02*
X10801491Y-15206388D01*
X10801491Y-15206388D02*
X10791968Y-15225436D01*
X10791968Y-15225436D02*
X10782444Y-15234960D01*
X10782444Y-15234960D02*
X10763396Y-15244484D01*
X10763396Y-15244484D02*
X10715777Y-15244484D01*
X10715777Y-15244484D02*
X10696729Y-15234960D01*
X10696729Y-15234960D02*
X10687206Y-15225436D01*
X10982444Y-15044484D02*
X10887206Y-15044484D01*
X10887206Y-15044484D02*
X10877682Y-15139722D01*
X10877682Y-15139722D02*
X10887206Y-15130198D01*
X10887206Y-15130198D02*
X10906253Y-15120674D01*
X10906253Y-15120674D02*
X10953872Y-15120674D01*
X10953872Y-15120674D02*
X10972920Y-15130198D01*
X10972920Y-15130198D02*
X10982444Y-15139722D01*
X10982444Y-15139722D02*
X10991968Y-15158769D01*
X10991968Y-15158769D02*
X10991968Y-15206388D01*
X10991968Y-15206388D02*
X10982444Y-15225436D01*
X10982444Y-15225436D02*
X10972920Y-15234960D01*
X10972920Y-15234960D02*
X10953872Y-15244484D01*
X10953872Y-15244484D02*
X10906253Y-15244484D01*
X10906253Y-15244484D02*
X10887206Y-15234960D01*
X10887206Y-15234960D02*
X10877682Y-15225436D01*
X11182444Y-15244484D02*
X11068158Y-15244484D01*
X11125301Y-15244484D02*
X11125301Y-15044484D01*
X11125301Y-15044484D02*
X11106253Y-15073055D01*
X11106253Y-15073055D02*
X11087206Y-15092103D01*
X11087206Y-15092103D02*
X11068158Y-15101627D01*
X11258634Y-15044484D02*
X11258634Y-15082579D01*
X11334825Y-15044484D02*
X11334825Y-15082579D01*
X11630063Y-15320674D02*
X11620539Y-15311150D01*
X11620539Y-15311150D02*
X11601491Y-15282579D01*
X11601491Y-15282579D02*
X11591968Y-15263531D01*
X11591968Y-15263531D02*
X11582444Y-15234960D01*
X11582444Y-15234960D02*
X11572920Y-15187341D01*
X11572920Y-15187341D02*
X11572920Y-15149246D01*
X11572920Y-15149246D02*
X11582444Y-15101627D01*
X11582444Y-15101627D02*
X11591968Y-15073055D01*
X11591968Y-15073055D02*
X11601491Y-15054008D01*
X11601491Y-15054008D02*
X11620539Y-15025436D01*
X11620539Y-15025436D02*
X11630063Y-15015912D01*
X11696729Y-15063531D02*
X11706253Y-15054008D01*
X11706253Y-15054008D02*
X11725301Y-15044484D01*
X11725301Y-15044484D02*
X11772920Y-15044484D01*
X11772920Y-15044484D02*
X11791968Y-15054008D01*
X11791968Y-15054008D02*
X11801491Y-15063531D01*
X11801491Y-15063531D02*
X11811015Y-15082579D01*
X11811015Y-15082579D02*
X11811015Y-15101627D01*
X11811015Y-15101627D02*
X11801491Y-15130198D01*
X11801491Y-15130198D02*
X11687206Y-15244484D01*
X11687206Y-15244484D02*
X11811015Y-15244484D01*
X12049110Y-15244484D02*
X12049110Y-15044484D01*
X12134825Y-15244484D02*
X12134825Y-15139722D01*
X12134825Y-15139722D02*
X12125301Y-15120674D01*
X12125301Y-15120674D02*
X12106253Y-15111150D01*
X12106253Y-15111150D02*
X12077682Y-15111150D01*
X12077682Y-15111150D02*
X12058634Y-15120674D01*
X12058634Y-15120674D02*
X12049110Y-15130198D01*
X12258634Y-15244484D02*
X12239587Y-15234960D01*
X12239587Y-15234960D02*
X12230063Y-15225436D01*
X12230063Y-15225436D02*
X12220539Y-15206388D01*
X12220539Y-15206388D02*
X12220539Y-15149246D01*
X12220539Y-15149246D02*
X12230063Y-15130198D01*
X12230063Y-15130198D02*
X12239587Y-15120674D01*
X12239587Y-15120674D02*
X12258634Y-15111150D01*
X12258634Y-15111150D02*
X12287206Y-15111150D01*
X12287206Y-15111150D02*
X12306253Y-15120674D01*
X12306253Y-15120674D02*
X12315777Y-15130198D01*
X12315777Y-15130198D02*
X12325301Y-15149246D01*
X12325301Y-15149246D02*
X12325301Y-15206388D01*
X12325301Y-15206388D02*
X12315777Y-15225436D01*
X12315777Y-15225436D02*
X12306253Y-15234960D01*
X12306253Y-15234960D02*
X12287206Y-15244484D01*
X12287206Y-15244484D02*
X12258634Y-15244484D01*
X12439587Y-15244484D02*
X12420539Y-15234960D01*
X12420539Y-15234960D02*
X12411015Y-15215912D01*
X12411015Y-15215912D02*
X12411015Y-15044484D01*
X12591968Y-15234960D02*
X12572920Y-15244484D01*
X12572920Y-15244484D02*
X12534825Y-15244484D01*
X12534825Y-15244484D02*
X12515777Y-15234960D01*
X12515777Y-15234960D02*
X12506253Y-15215912D01*
X12506253Y-15215912D02*
X12506253Y-15139722D01*
X12506253Y-15139722D02*
X12515777Y-15120674D01*
X12515777Y-15120674D02*
X12534825Y-15111150D01*
X12534825Y-15111150D02*
X12572920Y-15111150D01*
X12572920Y-15111150D02*
X12591968Y-15120674D01*
X12591968Y-15120674D02*
X12601491Y-15139722D01*
X12601491Y-15139722D02*
X12601491Y-15158769D01*
X12601491Y-15158769D02*
X12506253Y-15177817D01*
X12677682Y-15234960D02*
X12696730Y-15244484D01*
X12696730Y-15244484D02*
X12734825Y-15244484D01*
X12734825Y-15244484D02*
X12753872Y-15234960D01*
X12753872Y-15234960D02*
X12763396Y-15215912D01*
X12763396Y-15215912D02*
X12763396Y-15206388D01*
X12763396Y-15206388D02*
X12753872Y-15187341D01*
X12753872Y-15187341D02*
X12734825Y-15177817D01*
X12734825Y-15177817D02*
X12706253Y-15177817D01*
X12706253Y-15177817D02*
X12687206Y-15168293D01*
X12687206Y-15168293D02*
X12677682Y-15149246D01*
X12677682Y-15149246D02*
X12677682Y-15139722D01*
X12677682Y-15139722D02*
X12687206Y-15120674D01*
X12687206Y-15120674D02*
X12706253Y-15111150D01*
X12706253Y-15111150D02*
X12734825Y-15111150D01*
X12734825Y-15111150D02*
X12753872Y-15120674D01*
X12830063Y-15320674D02*
X12839587Y-15311150D01*
X12839587Y-15311150D02*
X12858634Y-15282579D01*
X12858634Y-15282579D02*
X12868158Y-15263531D01*
X12868158Y-15263531D02*
X12877682Y-15234960D01*
X12877682Y-15234960D02*
X12887206Y-15187341D01*
X12887206Y-15187341D02*
X12887206Y-15149246D01*
X12887206Y-15149246D02*
X12877682Y-15101627D01*
X12877682Y-15101627D02*
X12868158Y-15073055D01*
X12868158Y-15073055D02*
X12858634Y-15054008D01*
X12858634Y-15054008D02*
X12839587Y-15025436D01*
X12839587Y-15025436D02*
X12830063Y-15015912D01*
M02*
