M48
; DRILL file {KiCad 7.0.7} date Fri Sep 15 19:34:43 2023
; FORMAT={-:-/ absolute / metric / decimal}
; #@! TF.CreationDate,2023-09-15T19:34:43-06:00
; #@! TF.GenerationSoftware,Kicad,Pcbnew,7.0.7
; #@! TF.FileFunction,Plated,1,2,PTH
FMAT,2
METRIC
; #@! TA.AperFunction,Plated,PTH,ViaDrill
T1C0.500
; #@! TA.AperFunction,Plated,PTH,ComponentDrill
T2C1.000
; #@! TA.AperFunction,Plated,PTH,ComponentDrill
T3C1.110
; #@! TA.AperFunction,Plated,PTH,ComponentDrill
T4C1.400
%
G90
G05
T1
X121.6Y-106.6
T2
X85.725Y-83.825
X85.725Y-86.365
X131.2Y-81.13
X131.2Y-83.67
X131.2Y-86.21
X131.2Y-88.75
X131.2Y-91.29
X131.2Y-93.83
X131.2Y-96.37
X131.2Y-98.91
X131.2Y-101.45
X131.2Y-103.99
X131.2Y-106.53
X131.2Y-109.07
X131.2Y-111.61
X131.2Y-114.15
X131.2Y-116.69
X131.2Y-119.23
X131.2Y-121.77
X131.2Y-124.31
X131.2Y-126.85
X131.2Y-129.39
T3
X96.52Y-83.82
X96.52Y-86.36
X96.52Y-88.9
X96.52Y-91.44
X96.52Y-93.98
X96.52Y-96.52
X96.52Y-99.06
X96.52Y-101.6
X96.52Y-104.14
X96.52Y-106.68
X96.52Y-109.22
X96.52Y-111.76
X96.52Y-114.3
X96.52Y-116.84
X96.52Y-119.38
X96.52Y-121.92
X96.52Y-124.46
X96.52Y-127.0
X121.92Y-99.06
X121.92Y-101.6
T4
X85.725Y-100.33
X85.725Y-115.57
T0
M30
