%TF.GenerationSoftware,KiCad,Pcbnew,7.0.7*%
%TF.CreationDate,2023-09-15T15:20:15-06:00*%
%TF.ProjectId,hygienie_pcb,68796769-656e-4696-955f-7063622e6b69,rev?*%
%TF.SameCoordinates,Original*%
%TF.FileFunction,Soldermask,Bot*%
%TF.FilePolarity,Negative*%
%FSLAX46Y46*%
G04 Gerber Fmt 4.6, Leading zero omitted, Abs format (unit mm)*
G04 Created by KiCad (PCBNEW 7.0.7) date 2023-09-15 15:20:15*
%MOMM*%
%LPD*%
G01*
G04 APERTURE LIST*
%ADD10O,1.700000X1.700000*%
%ADD11R,1.700000X1.700000*%
%ADD12C,2.800000*%
%ADD13O,2.800000X2.800000*%
%ADD14R,1.665000X1.665000*%
%ADD15C,1.665000*%
G04 APERTURE END LIST*
D10*
%TO.C,U2*%
X131200000Y-81130000D03*
X131200000Y-83670000D03*
X131200000Y-86210000D03*
X131200000Y-88750000D03*
X131200000Y-91290000D03*
X131200000Y-93830000D03*
X131200000Y-96370000D03*
X131200000Y-98910000D03*
X131200000Y-101450000D03*
X131200000Y-103990000D03*
X131200000Y-106530000D03*
X131200000Y-109070000D03*
X131200000Y-111610000D03*
X131200000Y-114150000D03*
X131200000Y-116690000D03*
X131200000Y-119230000D03*
X131200000Y-121770000D03*
X131200000Y-124310000D03*
X131200000Y-126850000D03*
D11*
X131200000Y-129390000D03*
%TD*%
D12*
%TO.C,SW1*%
X85725000Y-100330000D03*
D13*
X85725000Y-115570000D03*
%TD*%
D14*
%TO.C,U1*%
X96520000Y-127000000D03*
D15*
X96520000Y-124460000D03*
X96520000Y-121920000D03*
X96520000Y-119380000D03*
X96520000Y-116840000D03*
X96520000Y-114300000D03*
X96520000Y-111760000D03*
X96520000Y-109220000D03*
X96520000Y-106680000D03*
X96520000Y-104140000D03*
X96520000Y-101600000D03*
X96520000Y-99060000D03*
X96520000Y-96520000D03*
X96520000Y-93980000D03*
X96520000Y-91440000D03*
X96520000Y-88900000D03*
X96520000Y-86360000D03*
X96520000Y-83820000D03*
X121920000Y-101600000D03*
X121920000Y-99060000D03*
%TD*%
D11*
%TO.C,J1*%
X85725000Y-86365000D03*
D10*
X85725000Y-83825000D03*
%TD*%
M02*
