M48
; DRILL file {KiCad 7.0.7} date Fri Sep 15 15:18:02 2023
; FORMAT={-:-/ absolute / inch / decimal}
; #@! TF.CreationDate,2023-09-15T15:18:02-06:00
; #@! TF.GenerationSoftware,Kicad,Pcbnew,7.0.7
; #@! TF.FileFunction,Plated,1,2,PTH
FMAT,2
INCH
; #@! TA.AperFunction,Plated,PTH,ViaDrill
T1C0.0197
; #@! TA.AperFunction,Plated,PTH,ComponentDrill
T2C0.0394
; #@! TA.AperFunction,Plated,PTH,ComponentDrill
T3C0.0437
; #@! TA.AperFunction,Plated,PTH,ComponentDrill
T4C0.0551
%
G90
G05
T1
X4.8Y-4.175
T2
X3.375Y-3.3002
X3.375Y-3.4002
X5.1654Y-3.1941
X5.1654Y-3.2941
X5.1654Y-3.3941
X5.1654Y-3.4941
X5.1654Y-3.5941
X5.1654Y-3.6941
X5.1654Y-3.7941
X5.1654Y-3.8941
X5.1654Y-3.9941
X5.1654Y-4.0941
X5.1654Y-4.1941
X5.1654Y-4.2941
X5.1654Y-4.3941
X5.1654Y-4.4941
X5.1654Y-4.5941
X5.1654Y-4.6941
X5.1654Y-4.7941
X5.1654Y-4.8941
X5.1654Y-4.9941
X5.1654Y-5.0941
T3
X3.8Y-3.3
X3.8Y-3.4
X3.8Y-3.5
X3.8Y-3.6
X3.8Y-3.7
X3.8Y-3.8
X3.8Y-3.9
X3.8Y-4.0
X3.8Y-4.1
X3.8Y-4.2
X3.8Y-4.3
X3.8Y-4.4
X3.8Y-4.5
X3.8Y-4.6
X3.8Y-4.7
X3.8Y-4.8
X3.8Y-4.9
X3.8Y-5.0
X4.8Y-3.9
X4.8Y-4.0
T4
X3.375Y-3.95
X3.375Y-4.55
T0
M30
