%TF.GenerationSoftware,KiCad,Pcbnew,7.0.7*%
%TF.CreationDate,2023-09-15T19:34:08-06:00*%
%TF.ProjectId,hygienie_pcb,68796769-656e-4696-955f-7063622e6b69,00*%
%TF.SameCoordinates,Original*%
%TF.FileFunction,Soldermask,Top*%
%TF.FilePolarity,Negative*%
%FSLAX46Y46*%
G04 Gerber Fmt 4.6, Leading zero omitted, Abs format (unit mm)*
G04 Created by KiCad (PCBNEW 7.0.7) date 2023-09-15 19:34:08*
%MOMM*%
%LPD*%
G01*
G04 APERTURE LIST*
G04 Aperture macros list*
%AMRoundRect*
0 Rectangle with rounded corners*
0 $1 Rounding radius*
0 $2 $3 $4 $5 $6 $7 $8 $9 X,Y pos of 4 corners*
0 Add a 4 corners polygon primitive as box body*
4,1,4,$2,$3,$4,$5,$6,$7,$8,$9,$2,$3,0*
0 Add four circle primitives for the rounded corners*
1,1,$1+$1,$2,$3*
1,1,$1+$1,$4,$5*
1,1,$1+$1,$6,$7*
1,1,$1+$1,$8,$9*
0 Add four rect primitives between the rounded corners*
20,1,$1+$1,$2,$3,$4,$5,0*
20,1,$1+$1,$4,$5,$6,$7,0*
20,1,$1+$1,$6,$7,$8,$9,0*
20,1,$1+$1,$8,$9,$2,$3,0*%
G04 Aperture macros list end*
%ADD10RoundRect,0.200000X0.275000X-0.200000X0.275000X0.200000X-0.275000X0.200000X-0.275000X-0.200000X0*%
%ADD11O,1.700000X1.700000*%
%ADD12R,1.700000X1.700000*%
%ADD13C,2.800000*%
%ADD14O,2.800000X2.800000*%
%ADD15R,1.665000X1.665000*%
%ADD16C,1.665000*%
G04 APERTURE END LIST*
D10*
%TO.C,R2*%
X122555000Y-126555000D03*
X122555000Y-124905000D03*
%TD*%
%TO.C,R1*%
X125730000Y-124905000D03*
X125730000Y-126555000D03*
%TD*%
D11*
%TO.C,U2*%
X131200000Y-81130000D03*
X131200000Y-83670000D03*
X131200000Y-86210000D03*
X131200000Y-88750000D03*
X131200000Y-91290000D03*
X131200000Y-93830000D03*
X131200000Y-96370000D03*
X131200000Y-98910000D03*
X131200000Y-101450000D03*
X131200000Y-103990000D03*
X131200000Y-106530000D03*
X131200000Y-109070000D03*
X131200000Y-111610000D03*
X131200000Y-114150000D03*
X131200000Y-116690000D03*
X131200000Y-119230000D03*
X131200000Y-121770000D03*
X131200000Y-124310000D03*
X131200000Y-126850000D03*
D12*
X131200000Y-129390000D03*
%TD*%
D13*
%TO.C,SW1*%
X85725000Y-100330000D03*
D14*
X85725000Y-115570000D03*
%TD*%
D15*
%TO.C,U1*%
X96520000Y-127000000D03*
D16*
X96520000Y-124460000D03*
X96520000Y-121920000D03*
X96520000Y-119380000D03*
X96520000Y-116840000D03*
X96520000Y-114300000D03*
X96520000Y-111760000D03*
X96520000Y-109220000D03*
X96520000Y-106680000D03*
X96520000Y-104140000D03*
X96520000Y-101600000D03*
X96520000Y-99060000D03*
X96520000Y-96520000D03*
X96520000Y-93980000D03*
X96520000Y-91440000D03*
X96520000Y-88900000D03*
X96520000Y-86360000D03*
X96520000Y-83820000D03*
X121920000Y-101600000D03*
X121920000Y-99060000D03*
%TD*%
D12*
%TO.C,J1*%
X85725000Y-86365000D03*
D11*
X85725000Y-83825000D03*
%TD*%
M02*
